<svg xmlns="http://www.w3.org/2000/svg" fill="none" viewBox="0 0 100 15">
  <path fill="#fff" d="M11.5714 10.779c-.695.6784-1.58985 1.1473-2.57034 1.347-.9805.1997-2.00222.1211-2.93487-.2258-.93264-.3468-1.73391-.9463-2.30162-1.7218-.56771-.77545-.87612-1.69189-.88589-2.63237-.00977-.94048.27954-1.86238.83103-2.64809.5515-.78572 1.34017-1.39964 2.26543-1.76347.92526-.36382 1.94516-.46105 2.92961-.27929.98446.18176 1.88885.63427 2.59785 1.29982l2.037-1.905C12.4277 1.2073 11.0101.49807 9.46701.212474 7.92395-.0731215 6.32515.0778141 4.87384.646094 3.42253 1.21437 2.18426 2.17433 1.31644 3.40394.448617 4.63354-.00956029 6.07726.00015125 7.55156.00986278 9.02587.487023 10.4642 1.37098 11.6836c.88395 1.2195 2.13478 2.1651 3.59346 2.7165 1.45869.5514 3.05936.6838 4.59853.3804 1.53913-.3034 2.94733-1.029 4.04553-2.0845l-2.0371-1.917Zm46.4066 0c-.695.6784-1.5898 1.1473-2.5703 1.347-.9805.1997-2.0022.1211-2.9349-.2258-.9326-.3468-1.7339-.9463-2.3016-1.7218-.5677-.77545-.8761-1.69189-.8859-2.63237-.0098-.94048.2796-1.86238.831-2.64809.5515-.78572 1.3402-1.39964 2.2655-1.76347.9252-.36382 1.9451-.46105 2.9296-.27929.9844.18176 1.8888.63427 2.5978 1.29982l2.0323-1.905C58.8295 1.2073 57.4119.49807 55.8688.212474c-1.543-.2855955-3.1418-.1346599-4.5931.43362-1.4513.568276-2.6896 1.528236-3.5574 2.757846-.8678 1.2296-1.326 2.67332-1.3163 4.14762.0097 1.47431.4869 2.91264 1.3708 4.13204.884 1.2195 2.1348 2.1651 3.5935 2.7165 1.4587.5514 3.0593.6838 4.5985.3804 1.5392-.3034 2.9473-1.029 4.0455-2.0845l-2.0323-1.917ZM22.4721 2.766c.9989 0 1.9753.27764 2.8058.79782.8306.52018 1.4779 1.25953 1.8601 2.12456.3823.86502.4823 1.81687.2874 2.73518-.1949.9183-.6759 1.76184-1.3822 2.42384-.7063.6621-1.6061 1.113-2.5858 1.2956-.9797.1827-1.9951.089-2.918-.2694-.9228-.3583-1.7115-.965-2.2665-1.7435-.5549-.77853-.8511-1.6938-.8511-2.6301.0017-1.25505.5343-2.45824 1.4811-3.34569.9467-.88745 2.2303-1.38672 3.5692-1.38831Zm0-2.7c-1.5681 0-3.1011.435871-4.405 1.2525-1.3039.81663-2.3202 1.97733-2.9204 3.33536-.6002 1.35802-.7573 2.85237-.4515 4.2941.3058 1.44174 1.0609 2.76604 2.1696 3.80554 1.1088 1.0396 2.5214 1.7476 4.0594 2.0345 1.538.287 3.1323.14 4.5812-.4223 1.4488-.5624 2.6873-1.5148 3.5588-2.7368.8714-1.2221 1.3367-2.65895 1.3371-4.1289.0002-.97611-.2048-1.94269-.6032-2.84453-.3984-.90184-.9824-1.72127-1.7188-2.41148-.7363-.69021-1.6105-1.23768-2.5726-1.611126C24.5446.259416 23.5134.0673029 22.4721.0675V.066Zm19.4492 8.622V0h2.8804v15l-9.9214-8.454V15h-2.8804V0l9.9214 8.688ZM88.8368 0l-6.1801 12.1635L81.2165 15l-1.4402-2.835L73.5994 0h2.8804l4.7367 9.33L85.958 0h2.8788Zm4.4422 2.7V6h5.1208v2.7H93.279v3.6H100V15h-9.6014V0H100v2.7h-6.721ZM76.4158 15h-2.8804l-4.7351-9.3315L64.0605 15h-2.8804l6.18-12.165L68.8003 0l1.4402 2.835L76.4158 15Zm-7.6203 0 1.2546-2.4705-.16-.3-1.0898-2.1795-1.2545 2.472L68.7955 15Z"/>
</svg>