<svg width="26" height="25" fill="none" xmlns="http://www.w3.org/2000/svg"><path d="M23.43 15.625h-3.274V7.489a.26.26 0 0 0-.445-.185l-6.326 6.327-6.326-6.326a.26.26 0 0 0-.445.184v8.136h-3.23c.223.733.528 1.429.898 2.083h4.155a.26.26 0 0 0 .26-.26V11.89l4.504 4.503a.26.26 0 0 0 .368 0l4.504-4.503v5.558c0 .144.116.26.26.26h4.198c.37-.654.675-1.35.898-2.083Z" fill="url(#a)"/><path d="M18.333 17.708a.26.26 0 0 1-.26-.26V11.89l-4.504 4.503a.26.26 0 0 1-.368 0L8.698 11.89v5.558a.26.26 0 0 1-.26.26H4.281c1.799 3.183 5.208 5.336 9.124 5.336 3.917 0 7.326-2.153 9.125-5.336h-4.198Z" fill="url(#b)"/><path d="M6.614 15.625V7.489a.26.26 0 0 1 .445-.185l6.326 6.327 6.326-6.326a.26.26 0 0 1 .445.184v8.136h3.273c.296-.969.458-1.996.458-3.062 0-5.787-4.693-10.48-10.48-10.48-5.788 0-10.48 4.693-10.48 10.48 0 1.066.16 2.093.456 3.062h3.231Z" fill="url(#c)"/><defs><linearGradient id="b" x1="8.988" y1="12.215" x2="20.092" y2="25.912" gradientUnits="userSpaceOnUse"><stop stop-color="#889097"/><stop offset="1" stop-color="#64717C"/></linearGradient><linearGradient id="c" x1="7.99" y1="3.073" x2="16.833" y2="18.099" gradientUnits="userSpaceOnUse"><stop stop-color="#FC7D5B"/><stop offset=".06" stop-color="#F8734F"/><stop offset=".18" stop-color="#F3653D"/><stop offset=".326" stop-color="#F05B31"/><stop offset=".523" stop-color="#EE552A"/><stop offset="1" stop-color="#ED5328"/></linearGradient><radialGradient id="a" cx="0" cy="0" r="1" gradientUnits="userSpaceOnUse" gradientTransform="translate(13.373 12.668) scale(10.3667)"><stop stop-color="#fff"/><stop offset=".679" stop-color="#F2F2F2"/><stop offset="1" stop-color="#CCC"/></radialGradient></defs></svg>