<svg width="56" height="57" viewBox="0 0 56 57" fill="none" xmlns="http://www.w3.org/2000/svg">
<g clip-path="url(#clip0_4045_17527)">
<path d="M24.5 5.16666C13.5671 5.16666 4.66666 14.0671 4.66666 25C4.66666 35.2338 12.4668 43.6847 22.431 44.7239C25.2462 49.0017 30.0905 51.8333 35.5833 51.8333C44.2607 51.8333 51.3333 44.7607 51.3333 36.0833C51.3333 30.5905 48.5017 25.7462 44.224 22.931C43.1847 12.9668 34.7338 5.16666 24.5 5.16666ZM24.5 8.66666C33.1118 8.66666 40.1214 15.287 40.7695 23.7285C40.7477 23.9179 40.7569 24.1095 40.7969 24.2959C40.8069 24.5313 40.8333 24.7621 40.8333 25C40.8333 34.0414 33.5414 41.3333 24.5 41.3333C24.199 41.3333 23.906 41.3037 23.609 41.2878C23.5598 41.2834 23.5104 41.2811 23.4609 41.2809C14.9092 40.7447 8.16666 33.6903 8.16666 25C8.16666 15.9586 15.4586 8.66666 24.5 8.66666ZM44.1784 27.3675C46.4335 29.5835 47.8333 32.6609 47.8333 36.0833C47.8333 42.8689 42.3689 48.3333 35.5833 48.3333C32.1609 48.3333 29.0835 46.9335 26.8675 44.6784C35.9088 43.5949 43.0949 36.4088 44.1784 27.3675Z" fill="white"/>
<path d="M27.1157 24.4407C27.1134 22.5241 27.4789 20.6255 28.1918 18.851C28.2079 18.8128 28.2144 18.7711 28.2105 18.7297C28.2067 18.6883 28.1927 18.6485 28.1698 18.614C28.1468 18.5797 28.116 18.5516 28.08 18.5321C28.0439 18.5126 28.0037 18.5024 27.9629 18.5022H22.0217C21.9809 18.5026 21.9408 18.5129 21.9048 18.5324C21.8688 18.5518 21.8379 18.5798 21.8149 18.614C21.7919 18.6485 21.7779 18.6883 21.7741 18.7297C21.7702 18.7711 21.7767 18.8128 21.7929 18.851C23.2419 22.4714 23.2269 26.5264 21.7511 30.1355C21.7348 30.1757 21.7285 30.2194 21.7328 30.2626C21.737 30.3059 21.7516 30.3475 21.7753 30.3837C21.7993 30.4203 21.8321 30.4502 21.8706 30.4705C21.9091 30.4908 21.952 30.5009 21.9953 30.4999H27.9981C28.0414 30.5003 28.084 30.49 28.1224 30.4697C28.1608 30.4494 28.1937 30.4199 28.2182 30.3837C28.2411 30.3471 28.2551 30.3055 28.259 30.2623C28.2628 30.2191 28.2563 30.1756 28.2402 30.1355C27.4963 28.3321 27.114 26.3961 27.1157 24.4407ZM26.1299 28.9661H23.8591C23.8469 28.9658 23.8349 28.9627 23.824 28.9571C23.8131 28.9515 23.8036 28.9434 23.7962 28.9335C23.7888 28.9236 23.7837 28.9122 23.7813 28.9C23.7788 28.8879 23.7791 28.8753 23.7821 28.8633C24.5671 26.0129 24.5785 22.9998 23.8151 20.1434C23.8116 20.1313 23.811 20.1186 23.8133 20.1062C23.8156 20.0939 23.8206 20.0823 23.8281 20.0723C23.8356 20.0623 23.8453 20.0542 23.8564 20.0487C23.8675 20.0432 23.8797 20.0404 23.8921 20.0405H26.0925C26.1049 20.0402 26.1171 20.043 26.1282 20.0485C26.1392 20.054 26.1488 20.0622 26.1562 20.0722C26.1635 20.0823 26.1683 20.094 26.1703 20.1064C26.1722 20.1188 26.1712 20.1315 26.1673 20.1434C25.4039 22.9998 25.4154 26.0129 26.2004 28.8633C26.2033 28.8748 26.2037 28.8868 26.2016 28.8985C26.1995 28.9102 26.195 28.9213 26.1883 28.9311C26.1816 28.9409 26.173 28.949 26.1629 28.9551C26.1528 28.9611 26.1416 28.9649 26.1299 28.9661ZM19.9027 24.4407C19.9001 22.5239 20.2663 20.625 20.9809 18.851C20.9965 18.8126 21.0025 18.7708 20.9983 18.7294C20.9942 18.688 20.9801 18.6483 20.9572 18.6138C20.9344 18.5793 20.9035 18.5511 20.8673 18.5316C20.8311 18.5121 20.7908 18.5021 20.7498 18.5022H16.349C16.3015 18.5047 16.2557 18.5207 16.2168 18.5484C16.1779 18.5761 16.1474 18.6143 16.1289 18.6588C15.3751 20.5131 14.9915 22.5011 15.0001 24.5074C15.0088 26.5136 15.4097 28.4981 16.1795 30.3457C16.1975 30.3903 16.2278 30.4287 16.2669 30.4561C16.306 30.4835 16.3521 30.4987 16.3996 30.4999H20.8005C20.8413 30.4998 20.8815 30.4896 20.9175 30.4701C20.9536 30.4506 20.9844 30.4225 21.0073 30.3881C21.0297 30.353 21.0434 30.3129 21.0472 30.2713C21.051 30.2296 21.0449 30.1876 21.0293 30.1489C20.2827 28.3416 19.8997 26.4008 19.9027 24.4407ZM18.9169 28.9661H17.3083C17.2917 28.966 17.2755 28.9608 17.2618 28.9512C17.2481 28.9417 17.2375 28.9282 17.2313 28.9125C16.2555 26.0565 16.2424 22.9519 17.1939 20.0875C17.199 20.0713 17.209 20.0573 17.2224 20.0472C17.2359 20.0372 17.2521 20.0317 17.2687 20.0316H18.8949C18.9071 20.0319 18.9191 20.035 18.93 20.0406C18.9408 20.0462 18.9503 20.0543 18.9577 20.0642C18.9651 20.0741 18.9702 20.0855 18.9727 20.0977C18.9751 20.1098 18.9749 20.1224 18.9719 20.1344C18.2092 22.9908 18.2198 26.0035 19.0027 28.8543C19.0077 28.8677 19.0093 28.8821 19.0072 28.8962C19.0052 28.9103 18.9995 28.9236 18.9909 28.9349C18.9823 28.9461 18.9709 28.9549 18.9579 28.9604C18.945 28.9659 18.9308 28.9678 18.9169 28.9661ZM33.8799 18.6565C33.8606 18.6104 33.8285 18.571 33.7874 18.5432C33.7464 18.5154 33.6982 18.5004 33.6489 18.5H29.237C29.196 18.4998 29.1557 18.5099 29.1195 18.5294C29.0833 18.5488 29.0524 18.5771 29.0296 18.6116C29.0067 18.6461 28.9926 18.6858 28.9885 18.7272C28.9844 18.7686 28.9903 18.8103 29.0059 18.8488C30.4594 22.4732 30.4427 26.5347 28.9597 30.1467C28.9437 30.1852 28.9373 30.2273 28.9412 30.269C28.9451 30.3107 28.9591 30.3507 28.982 30.3855C29.005 30.4203 29.036 30.4488 29.0725 30.4684C29.1089 30.488 29.1495 30.498 29.1908 30.4977H33.5917C33.6408 30.4978 33.6889 30.4833 33.73 30.4558C33.7711 30.4284 33.8033 30.3893 33.8227 30.3434C34.5914 28.4956 34.9916 26.511 34.9999 24.5049C35.0082 22.4988 34.6245 20.5109 33.8711 18.6565H33.8799ZM32.7577 28.9125C32.7518 28.9284 32.7413 28.942 32.7275 28.9516C32.7137 28.9612 32.6974 28.9663 32.6807 28.9661H31.0721C31.0599 28.9658 31.0479 28.9627 31.0371 28.9571C31.0262 28.9515 31.0167 28.9434 31.0093 28.9335C31.0019 28.9236 30.9968 28.9122 30.9943 28.9C30.9919 28.8879 30.9922 28.8753 30.9951 28.8633C31.7809 26.0129 31.7916 22.9994 31.0259 20.1434C31.023 20.1313 31.0227 20.1188 31.0251 20.1066C31.0276 20.0945 31.0327 20.083 31.0401 20.0731C31.0475 20.0633 31.057 20.0552 31.0679 20.0495C31.0788 20.0439 31.0907 20.0408 31.103 20.0405H32.7203C32.7372 20.0405 32.7538 20.0459 32.7676 20.0559C32.7814 20.066 32.7918 20.0801 32.7973 20.0964C33.747 22.9613 33.733 26.0655 32.7577 28.9214V28.9125Z" fill="white"/>
</g>
<defs>
<clipPath id="clip0_4045_17527">
<rect width="56" height="56" fill="white" transform="translate(0 0.5)"/>
</clipPath>
</defs>
</svg>
