<svg width="48" height="48" viewBox="0 0 48 48" fill="none" xmlns="http://www.w3.org/2000/svg">
<g clip-path="url(#clip0_2489_11607)">
<path d="M21 4C11.6289 4 4 11.6289 4 21C4 29.7718 10.6858 37.0155 19.2266 37.9062C21.6396 41.5729 25.7919 44 30.5 44C37.9378 44 44 37.9378 44 30.5C44 25.7919 41.5729 21.6396 37.9062 19.2266C37.0155 10.6858 29.7718 4 21 4ZM21 7C28.3815 7 34.3898 12.6746 34.9453 19.9102C34.9266 20.0725 34.9345 20.2367 34.9688 20.3965C34.9773 20.5982 35 20.7961 35 21C35 28.7498 28.7498 35 21 35C20.742 35 20.4909 34.9746 20.2363 34.9609C20.1941 34.9572 20.1518 34.9552 20.1094 34.9551C12.7793 34.4954 7 28.4488 7 21C7 13.2502 13.2502 7 21 7ZM37.8672 23.0293C39.8001 24.9287 41 27.5665 41 30.5C41 36.3162 36.3162 41 30.5 41C27.5665 41 24.9287 39.8001 23.0293 37.8672C30.7789 36.9385 36.9385 30.7789 37.8672 23.0293Z" fill="white"/>
<g clip-path="url(#clip1_2489_11607)">
<path d="M23.9677 20.693C23.9648 18.1862 24.4366 15.7029 25.3568 13.382C25.3776 13.332 25.386 13.2774 25.381 13.2233C25.376 13.1691 25.3579 13.1171 25.3283 13.072C25.2988 13.0271 25.259 12.9903 25.2124 12.9648C25.1659 12.9393 25.114 12.9259 25.0613 12.9258H17.3919C17.3392 12.9262 17.2874 12.9397 17.2409 12.9652C17.1944 12.9906 17.1546 13.0273 17.1248 13.072C17.0953 13.1171 17.0772 13.1691 17.0722 13.2233C17.0672 13.2774 17.0756 13.332 17.0964 13.382C18.967 18.1172 18.9476 23.4209 17.0425 28.1414C17.0215 28.194 17.0134 28.2511 17.0189 28.3077C17.0243 28.3643 17.0431 28.4187 17.0737 28.466C17.1048 28.5139 17.1471 28.553 17.1968 28.5796C17.2464 28.6062 17.3018 28.6194 17.3578 28.6181H25.1068C25.1626 28.6186 25.2177 28.605 25.2672 28.5785C25.3168 28.552 25.3592 28.5134 25.3908 28.466C25.4205 28.4182 25.4386 28.3638 25.4435 28.3073C25.4485 28.2508 25.4401 28.1939 25.4192 28.1414C24.459 25.7827 23.9655 23.2505 23.9677 20.693ZM22.6952 26.612H19.7637C19.748 26.6116 19.7325 26.6075 19.7184 26.6002C19.7044 26.5928 19.6921 26.5822 19.6826 26.5693C19.673 26.5564 19.6664 26.5414 19.6633 26.5255C19.6601 26.5096 19.6605 26.4932 19.6643 26.4774C20.6777 22.7493 20.6924 18.8083 19.7069 15.0723C19.7025 15.0565 19.7017 15.0399 19.7046 15.0237C19.7075 15.0076 19.7141 14.9924 19.7238 14.9793C19.7334 14.9662 19.7459 14.9557 19.7603 14.9484C19.7746 14.9412 19.7904 14.9376 19.8063 14.9378H22.6469C22.6628 14.9374 22.6786 14.941 22.6929 14.9482C22.7072 14.9554 22.7196 14.9661 22.729 14.9793C22.7385 14.9924 22.7447 15.0078 22.7473 15.024C22.7498 15.0402 22.7485 15.0567 22.7434 15.0723C21.758 18.8083 21.7727 22.7493 22.7861 26.4774C22.7898 26.4925 22.7904 26.5082 22.7877 26.5235C22.785 26.5388 22.7792 26.5534 22.7705 26.5661C22.7619 26.5789 22.7507 26.5896 22.7377 26.5975C22.7247 26.6054 22.7102 26.6103 22.6952 26.612Z" fill="white"/>
</g>
</g>
<defs>
<clipPath id="clip0_2489_11607">
<rect width="48" height="48" fill="white"/>
</clipPath>
<clipPath id="clip1_2489_11607">
<rect width="25.8462" height="15.6923" fill="white" transform="translate(8.30774 12.9229)"/>
</clipPath>
</defs>
</svg>
