<svg width="46" height="76" viewBox="0 0 46 76" fill="none" xmlns="http://www.w3.org/2000/svg">
<rect x="1.5" y="1.5" width="43" height="73" rx="6.5" fill="#717171" fill-opacity="0.01" stroke="white" stroke-width="3"/>
<g clip-path="url(#clip0_1478_3966)">
<path d="M26.7826 28.9128C26.779 26.0374 27.3449 23.1888 28.4486 20.5267C28.4736 20.4693 28.4836 20.4067 28.4777 20.3446C28.4717 20.2825 28.45 20.2228 28.4145 20.1711C28.379 20.1196 28.3313 20.0774 28.2755 20.0481C28.2197 20.0189 28.1575 20.0035 28.0942 20.0034H18.8954C18.8323 20.0038 18.7702 20.0193 18.7144 20.0485C18.6586 20.0777 18.6109 20.1198 18.5752 20.1711C18.5397 20.2228 18.518 20.2825 18.512 20.3446C18.5061 20.4067 18.5161 20.4693 18.5411 20.5267C20.7847 25.9582 20.7614 32.0419 18.4764 37.4566C18.4513 37.517 18.4415 37.5824 18.4481 37.6474C18.4546 37.7123 18.4772 37.7746 18.5139 37.8289C18.5511 37.8839 18.6019 37.9287 18.6615 37.9592C18.721 37.9897 18.7874 38.0049 18.8546 38.0034H28.1488C28.2157 38.004 28.2818 37.9884 28.3412 37.958C28.4006 37.9276 28.4515 37.8833 28.4895 37.8289C28.525 37.7741 28.5467 37.7117 28.5526 37.6469C28.5586 37.5821 28.5486 37.5168 28.5235 37.4566C27.3718 34.751 26.7799 31.8464 26.7826 28.9128ZM25.2562 35.7022H21.7403C21.7213 35.7018 21.7028 35.6971 21.6859 35.6887C21.6691 35.6802 21.6544 35.6681 21.643 35.6533C21.6315 35.6385 21.6236 35.6213 21.6198 35.603C21.616 35.5848 21.6164 35.566 21.621 35.5479C22.8364 31.2715 22.8541 26.751 21.6721 22.4655C21.6668 22.4474 21.6659 22.4284 21.6694 22.4098C21.6729 22.3913 21.6807 22.3739 21.6923 22.3589C21.7039 22.3439 21.7189 22.3317 21.7361 22.3235C21.7533 22.3152 21.7722 22.311 21.7914 22.3112H25.1983C25.2174 22.3108 25.2363 22.3149 25.2535 22.3232C25.2706 22.3315 25.2855 22.3437 25.2969 22.3588C25.3082 22.3739 25.3157 22.3915 25.3187 22.4101C25.3217 22.4287 25.3202 22.4477 25.3142 22.4655C24.1322 26.751 24.1498 31.2715 25.3653 35.5479C25.3698 35.5652 25.3704 35.5832 25.3672 35.6008C25.364 35.6183 25.357 35.635 25.3467 35.6496C25.3363 35.6643 25.3229 35.6766 25.3073 35.6856C25.2917 35.6947 25.2743 35.7004 25.2562 35.7022ZM15.6145 28.9128C15.6105 26.037 16.1776 23.1882 17.2839 20.5267C17.3081 20.4689 17.3173 20.4063 17.3109 20.3442C17.3046 20.2821 17.2827 20.2225 17.2473 20.1708C17.2119 20.119 17.1641 20.0766 17.1081 20.0474C17.0521 20.0182 16.9896 20.0031 16.9262 20.0034H10.1123C10.0388 20.0071 9.96793 20.0311 9.90768 20.0726C9.84743 20.1141 9.80026 20.1715 9.77158 20.2382C8.60451 23.0202 8.01045 26.0028 8.02391 29.0128C8.03736 32.0228 8.65805 35.0001 9.84994 37.7719C9.87773 37.8389 9.92476 37.8965 9.98527 37.9376C10.0458 37.9787 10.1171 38.0016 10.1906 38.0034H17.0046C17.0678 38.0032 17.13 37.9878 17.1858 37.9586C17.2416 37.9293 17.2893 37.8871 17.3248 37.8356C17.3595 37.7829 17.3807 37.7228 17.3866 37.6603C17.3926 37.5978 17.383 37.5348 17.3589 37.4767C16.203 34.7653 15.6099 31.8534 15.6145 28.9128ZM14.0882 35.7022H11.5977C11.572 35.702 11.5469 35.6942 11.5256 35.6799C11.5044 35.6655 11.488 35.6453 11.4785 35.6217C9.96763 31.3369 9.94725 26.6791 11.4206 22.3817C11.4284 22.3575 11.4439 22.3363 11.4647 22.3213C11.4855 22.3062 11.5106 22.298 11.5364 22.2978H14.0541C14.073 22.2983 14.0916 22.3029 14.1085 22.3114C14.1253 22.3198 14.14 22.3319 14.1514 22.3467C14.1629 22.3615 14.1708 22.3787 14.1746 22.397C14.1784 22.4152 14.178 22.434 14.1734 22.4521C12.9925 26.7376 13.009 31.2575 14.2211 35.5345C14.2289 35.5545 14.2313 35.5761 14.2281 35.5973C14.2249 35.6184 14.2162 35.6385 14.2028 35.6553C14.1894 35.6722 14.1718 35.6854 14.1518 35.6936C14.1317 35.7018 14.1098 35.7048 14.0882 35.7022ZM37.2556 20.2348C37.2257 20.1656 37.1759 20.1065 37.1124 20.0648C37.0488 20.0231 36.9742 20.0005 36.8979 20H30.0669C30.0035 19.9997 29.941 20.0149 29.885 20.0441C29.829 20.0733 29.7812 20.1156 29.7458 20.1674C29.7104 20.2192 29.6885 20.2787 29.6822 20.3408C29.6758 20.4029 29.685 20.4656 29.7092 20.5233C31.9595 25.961 31.9338 32.0543 29.6376 37.4734C29.6128 37.5312 29.6029 37.5943 29.6089 37.6568C29.615 37.7194 29.6367 37.7795 29.6722 37.8317C29.7077 37.8839 29.7558 37.9266 29.8122 37.956C29.8686 37.9854 29.9315 38.0005 29.9953 38H36.8093C36.8854 38.0002 36.9599 37.9783 37.0234 37.9372C37.087 37.896 37.137 37.8374 37.167 37.7686C38.3572 34.9962 38.9768 32.0189 38.9896 29.0091C39.0025 25.9993 38.4085 23.0169 37.242 20.2348H37.2556ZM35.518 35.6217C35.5089 35.6455 35.4926 35.6661 35.4713 35.6805C35.45 35.6949 35.4247 35.7024 35.3988 35.7022H32.9083C32.8894 35.7018 32.8708 35.6971 32.854 35.6887C32.8371 35.6802 32.8224 35.6681 32.811 35.6533C32.7995 35.6385 32.7916 35.6213 32.7878 35.603C32.784 35.5848 32.7844 35.566 32.789 35.5479C34.0057 31.2715 34.0222 26.7504 32.8368 22.4655C32.8321 22.4475 32.8317 22.4286 32.8355 22.4104C32.8393 22.3921 32.8472 22.375 32.8587 22.3601C32.8701 22.3453 32.8848 22.3332 32.9017 22.3248C32.9185 22.3163 32.9371 22.3117 32.956 22.3112H35.4601C35.4864 22.3112 35.512 22.3193 35.5334 22.3343C35.5548 22.3494 35.5708 22.3706 35.5794 22.3951C37.0497 26.6932 37.0282 31.3504 35.518 35.6351V35.6217Z" fill="white"/>
</g>
<defs>
<clipPath id="clip0_1478_3966">
<rect width="31" height="18" fill="white" transform="translate(8 20)"/>
</clipPath>
</defs>
</svg>
