<svg width="38" height="64" viewBox="0 0 38 64" fill="none" xmlns="http://www.w3.org/2000/svg">
<path d="M22.1247 24.3845C22.1218 22.0091 22.5893 19.656 23.501 17.4568C23.5217 17.4094 23.53 17.3577 23.525 17.3064C23.5201 17.2551 23.5022 17.2058 23.4729 17.1631C23.4435 17.1205 23.4041 17.0856 23.358 17.0615C23.3119 17.0374 23.2605 17.0247 23.2083 17.0245H15.6093C15.5571 17.0249 15.5058 17.0377 15.4597 17.0618C15.4137 17.0859 15.3742 17.1207 15.3447 17.1631C15.3154 17.2058 15.2975 17.2551 15.2926 17.3064C15.2876 17.3577 15.2959 17.4094 15.3166 17.4568C17.17 21.9437 17.1508 26.9694 15.2631 31.4424C15.2424 31.4923 15.2343 31.5464 15.2397 31.6C15.2451 31.6536 15.2638 31.7051 15.2941 31.75C15.3249 31.7954 15.3668 31.8324 15.416 31.8576C15.4652 31.8828 15.5201 31.8953 15.5755 31.8941H23.2533C23.3086 31.8946 23.3632 31.8817 23.4123 31.8566C23.4614 31.8315 23.5034 31.7949 23.5348 31.75C23.5642 31.7047 23.5821 31.6531 23.587 31.5996C23.5919 31.546 23.5836 31.4921 23.5629 31.4424C22.6115 29.2074 22.1226 26.8079 22.1247 24.3845ZM20.8639 29.9931H17.9593C17.9437 29.9927 17.9284 29.9889 17.9145 29.9819C17.9006 29.9749 17.8884 29.9649 17.879 29.9527C17.8695 29.9405 17.863 29.9263 17.8598 29.9112C17.8567 29.8961 17.857 29.8806 17.8608 29.8657C18.8649 26.333 18.8795 22.5986 17.9031 19.0585C17.8987 19.0435 17.8979 19.0278 17.9008 19.0125C17.9037 18.9972 17.9102 18.9827 17.9198 18.9704C17.9293 18.958 17.9417 18.9479 17.9559 18.9411C17.9701 18.9343 17.9858 18.9308 18.0016 18.931H20.816C20.8318 18.9307 20.8474 18.934 20.8616 18.9409C20.8758 18.9477 20.888 18.9578 20.8974 18.9703C20.9068 18.9828 20.913 18.9973 20.9155 19.0127C20.918 19.028 20.9167 19.0437 20.9117 19.0585C19.9353 22.5986 19.9499 26.333 20.9539 29.8657C20.9577 29.8799 20.9582 29.8948 20.9555 29.9093C20.9529 29.9238 20.9471 29.9376 20.9385 29.9497C20.93 29.9618 20.9189 29.9719 20.906 29.9794C20.8931 29.9869 20.8788 29.9916 20.8639 29.9931ZM12.899 24.3845C12.8956 22.0088 13.3641 19.6554 14.278 17.4568C14.298 17.4091 14.3056 17.3573 14.3004 17.3061C14.2951 17.2548 14.277 17.2056 14.2478 17.1628C14.2185 17.12 14.179 17.085 14.1328 17.0609C14.0865 17.0368 14.0349 17.0243 13.9825 17.0245H8.35362C8.29295 17.0276 8.23438 17.0474 8.18461 17.0817C8.13484 17.116 8.09587 17.1634 8.07218 17.2185C7.10808 19.5167 6.61734 21.9806 6.62845 24.4671C6.63956 26.9536 7.15231 29.4131 8.13691 31.7029C8.15987 31.7582 8.19872 31.8058 8.24871 31.8398C8.29869 31.8737 8.35765 31.8926 8.41836 31.8941H14.0473C14.0995 31.8939 14.1509 31.8812 14.197 31.8571C14.2431 31.8329 14.2825 31.7981 14.3118 31.7555C14.3405 31.712 14.358 31.6623 14.3629 31.6107C14.3678 31.559 14.3599 31.507 14.34 31.459C13.3851 29.2191 12.8951 26.8137 12.899 24.3845ZM11.6381 29.9931H9.58073C9.55945 29.9929 9.53871 29.9865 9.52116 29.9747C9.50362 29.9628 9.49006 29.9461 9.48222 29.9266C8.23413 26.387 8.2173 22.5392 9.43438 18.9892C9.44089 18.9692 9.45365 18.9517 9.47083 18.9393C9.48801 18.9269 9.50874 18.9201 9.53007 18.9199H11.6099C11.6256 18.9203 11.6409 18.9241 11.6548 18.9311C11.6687 18.9381 11.6809 18.9481 11.6903 18.9603C11.6998 18.9726 11.7063 18.9868 11.7095 19.0018C11.7126 19.0169 11.7123 19.0325 11.7085 19.0474C10.7329 22.5875 10.7465 26.3214 11.7479 29.8546C11.7543 29.8711 11.7563 29.8889 11.7536 29.9064C11.751 29.9239 11.7438 29.9405 11.7328 29.9544C11.7217 29.9683 11.7072 29.9792 11.6906 29.986C11.674 29.9928 11.6559 29.9952 11.6381 29.9931ZM30.7764 17.2157C30.7517 17.1585 30.7105 17.1097 30.658 17.0752C30.6055 17.0408 30.5439 17.0222 30.4808 17.0217H24.8379C24.7855 17.0215 24.7339 17.034 24.6876 17.0581C24.6414 17.0823 24.6019 17.1172 24.5726 17.16C24.5434 17.2028 24.5253 17.252 24.52 17.3033C24.5148 17.3546 24.5224 17.4063 24.5424 17.454C26.4013 21.946 26.3801 26.9796 24.4832 31.4562C24.4627 31.5041 24.4546 31.5561 24.4596 31.6078C24.4646 31.6595 24.4825 31.7091 24.5118 31.7523C24.5411 31.7954 24.5809 31.8307 24.6275 31.855C24.6741 31.8792 24.7261 31.8917 24.7788 31.8913H30.4077C30.4705 31.8914 30.5321 31.8734 30.5846 31.8394C30.6371 31.8054 30.6784 31.757 30.7032 31.7001C31.6864 29.4099 32.1982 26.9504 32.2088 24.464C32.2195 21.9777 31.7287 19.514 30.7651 17.2157H30.7764ZM29.341 29.9266C29.3335 29.9463 29.32 29.9633 29.3024 29.9752C29.2848 29.987 29.2638 29.9933 29.2425 29.9931H27.1851C27.1695 29.9927 27.1542 29.9889 27.1403 29.9819C27.1263 29.9749 27.1142 29.9649 27.1047 29.9527C27.0953 29.9405 27.0887 29.9263 27.0856 29.9112C27.0825 29.8961 27.0828 29.8806 27.0866 29.8657C28.0917 26.333 28.1053 22.5981 27.126 19.0585C27.1222 19.0436 27.1219 19.028 27.125 19.0129C27.1281 18.9978 27.1347 18.9837 27.1441 18.9714C27.1536 18.9592 27.1657 18.9492 27.1797 18.9422C27.1936 18.9352 27.2089 18.9314 27.2245 18.931H29.2931C29.3148 18.931 29.336 18.9377 29.3537 18.9501C29.3713 18.9625 29.3846 18.9801 29.3916 19.0003C30.6063 22.5509 30.5885 26.3982 29.341 29.9377V29.9266Z" fill="white"/>
<rect x="1.5" y="2" width="35" height="59.7826" rx="6.5" fill="#717171" fill-opacity="0.01" stroke="white" stroke-width="3"/>
</svg>
