<svg width="51" height="5" fill="none" xmlns="http://www.w3.org/2000/svg"><path d="M.899902 4H1.8999V1.5c0-.27614-.22386-.5-.5-.5s-.499998.22386-.499998.5V4ZM11.8 4h1V1.5c0-.27614-.2238-.5-.5-.5-.2761 0-.5.22386-.5.5V4ZM22.7 4h1V1.5c0-.27614-.2239-.5-.5-.5-.2762 0-.5.22386-.5.5V4ZM33.6001 4h1V1.5c0-.27614-.2239-.5-.5-.5s-.5.22386-.5.5V4Z" fill="#5F8C8D"/><g filter="url(#a)"><path d="M44.5 5h2V1c0-.552285-.4477-1-1-1s-1 .447715-1 1v4Z" fill="url(#b)"/></g><defs><linearGradient id="b" x1="45.5" y1="5" x2="45.5" y2="0" gradientUnits="userSpaceOnUse"><stop stop-color="#B4ECEE"/><stop offset="1" stop-color="#689DAF"/></linearGradient><filter id="a" x="40.5" y="-6" width="10" height="13" filterUnits="userSpaceOnUse" color-interpolation-filters="sRGB"><feFlood flood-opacity="0" result="BackgroundImageFix"/><feColorMatrix in="SourceAlpha" values="0 0 0 0 0 0 0 0 0 0 0 0 0 0 0 0 0 0 127 0" result="hardAlpha"/><feOffset dy="-2"/><feGaussianBlur stdDeviation="2"/><feComposite in2="hardAlpha" operator="out"/><feColorMatrix values="0 0 0 0 0.709804 0 0 0 0 0.92549 0 0 0 0 0.933333 0 0 0 0.25 0"/><feBlend in2="BackgroundImageFix" result="effect1_dropShadow_5301_14280"/><feBlend in="SourceGraphic" in2="effect1_dropShadow_5301_14280" result="shape"/></filter></defs></svg>