<svg xmlns="http://www.w3.org/2000/svg" fill="none" viewBox="0 0 28 28">
  <rect width="28" height="28" fill="#fff" rx="6"/>
  <path fill="url(#a)" d="m23.52 7.76.57-1.39-1.6-1.66c-.87-.86-2.72-.35-2.72-.35l-2.1-2.38H10.3L8.2 4.37s-1.85-.5-2.71.34l-1.6 1.65.56 1.39-.7 2.05 2.35 8.99c.5 1.92.82 2.67 2.2 3.65l4.31 2.92c.42.25.93.7 1.4.7.45 0 .96-.45 1.38-.7l4.3-2.92c1.4-.98 1.72-1.73 2.21-3.65l2.36-8.99-.73-2.04Z"/>
  <path fill="#fff" d="M19.19 5.88s2.7 3.27 2.7 3.96c0 .71-.34.89-.68 1.26l-2.02 2.16c-.2.2-.6.51-.36 1.07.23.57.56 1.26.19 1.98-.38.73-1.04 1.2-1.47 1.13a7.73 7.73 0 0 1-1.79-.85c-.36-.23-1.5-1.19-1.5-1.55 0-.37 1.18-1.04 1.4-1.17.23-.15 1.23-.74 1.25-.96.02-.23.02-.29-.28-.85-.3-.57-.83-1.32-.75-1.81.09-.5.94-.76 1.57-1l1.95-.73c.15-.07.12-.14-.34-.19-.45-.03-1.72-.2-2.3-.04-.57.16-1.53.4-1.63.53-.07.14-.15.14-.06.59l.54 2.97c.04.38.12.63-.28.72-.42.1-1.1.26-1.34.26s-.93-.16-1.34-.26c-.4-.09-.33-.34-.28-.72.04-.38.45-2.53.54-2.97.1-.45 0-.45-.07-.59-.1-.13-1.06-.37-1.64-.53-.57-.16-1.85 0-2.3.05-.45.04-.5.1-.34.2l1.95.72c.62.23 1.5.5 1.58.99.1.5-.45 1.24-.76 1.8-.3.57-.3.63-.28.86.02.22 1.04.8 1.24.96.23.14 1.42.8 1.42 1.17 0 .36-1.12 1.32-1.5 1.55-.56.36-1.16.65-1.8.85-.42.08-1.08-.4-1.46-1.13-.38-.72-.04-1.41.19-1.98.23-.57-.16-.87-.36-1.07L6.75 11.1c-.33-.35-.67-.54-.67-1.24s2.7-3.96 2.7-3.96l2.58.42c.3 0 .97-.26 1.58-.47a4.6 4.6 0 0 1 1.04-.21s.42 0 1.04.2c.62.21 1.28.48 1.58.48.31 0 2.6-.45 2.6-.45l-.01.01ZM17.16 18.4c.17.1.06.3-.1.42l-2.4 1.86c-.18.2-.48.48-.68.48-.2 0-.49-.29-.69-.48l-2.4-1.86c-.15-.12-.26-.31-.1-.42l1.42-.75a8.2 8.2 0 0 1 1.77-.69c.14 0 1.04.32 1.76.69l1.42.75Z"/>
  <path fill="url(#b)" d="m19.79 4.37-2.11-2.39H10.3L8.2 4.37s-1.86-.5-2.72.34c0 0 2.45-.21 3.3 1.16l2.6.45c.3 0 .97-.26 1.58-.47.62-.2 1.04-.21 1.04-.21s.41 0 1.04.2c.62.21 1.28.48 1.58.48.31 0 2.6-.45 2.6-.45.84-1.37 3.3-1.16 3.3-1.16-.87-.86-2.72-.35-2.72-.35"/>
  <defs>
    <linearGradient id="a" x1="3.73" x2="24.25" y1="14.26" y2="14.26" gradientUnits="userSpaceOnUse">
      <stop offset=".4" stop-color="#F50"/>
      <stop offset=".6" stop-color="#FF2000"/>
    </linearGradient>
    <linearGradient id="b" x1="5.82" x2="22.51" y1="4.19" y2="4.19" gradientUnits="userSpaceOnUse">
      <stop stop-color="#FF452A"/>
      <stop offset="1" stop-color="#FF2000"/>
    </linearGradient>
  </defs>
</svg>
