<svg xmlns="http://www.w3.org/2000/svg" fill="none" viewBox="0 0 28 28">
  <g clip-path="url(#a)">
    <path fill="#fff" d="M0 0h28v28H0z"/>
    <path fill="#F3F3F3" fill-rule="evenodd" d="M7 7a2 2 0 0 0-2 2v10c0 1.1.9 2 2 2h13.89a2 2 0 0 0 2-2v-1.53a2 2 0 0 0 .78-1.58V12.1a2 2 0 0 0-.78-1.58V9a2 2 0 0 0-2-2H7Z" clip-rule="evenodd"/>
    <path fill="#8F99A7" stroke="#8F99A7" stroke-width=".5" d="M20.5 20.22H7.3c-.84 0-1.52-.63-1.52-1.42V9.2c0-.79.68-1.42 1.52-1.42h13.2c.85 0 1.53.63 1.53 1.42V11c.5.17.86.62.86 1.14v3.72c0 .52-.36.97-.86 1.14v1.8c0 .79-.68 1.42-1.52 1.42ZM7.3 8.6a.62.62 0 0 0-.63.6v9.6c0 .33.28.6.63.6h13.2c.36 0 .64-.27.64-.6v-1.73H17c-.72 0-1.3-.54-1.3-1.21v-3.72c0-.67.58-1.21 1.3-1.21h4.14V9.2c0-.33-.28-.6-.63-.6H7.3Zm9.7 3.16c-.23 0-.42.17-.42.38v3.72c0 .21.19.39.42.39h4.58c.23 0 .42-.18.42-.4v-3.7c0-.22-.19-.4-.42-.4H17Z"/>
  </g>
  <defs>
    <clipPath id="a">
      <rect width="28" height="28" fill="#fff" rx="6"/>
    </clipPath>
  </defs>
</svg>
