<svg width="28" height="28" viewBox="0 0 28 28" fill="none" xmlns="http://www.w3.org/2000/svg">
<g clip-path="url(#a)">
<rect width="28" height="28" fill="white"/>
<path d="M23 5.28064V11.749L4 19.392L23 5.28064Z" fill="#00C9FF"/>
<path d="M19.4382 5V16.1583C19.4382 17.7176 18.8126 19.2131 17.6991 20.3157C16.5855 21.4183 15.0752 22.0377 13.5004 22.0377C11.9256 22.0377 10.4152 21.4183 9.30166 20.3157C8.1881 19.2131 7.5625 17.7176 7.5625 16.1583V11.4565L11.1246 9.51539V16.1583C11.0913 16.4482 11.1202 16.7418 11.2094 17.0199C11.2986 17.298 11.4461 17.5543 11.6424 17.772C11.8386 17.9897 12.0791 18.1638 12.348 18.2831C12.617 18.4024 12.9083 18.464 13.203 18.464C13.4977 18.464 13.7891 18.4024 14.058 18.2831C14.327 18.1638 14.5675 17.9897 14.7637 17.772C14.9599 17.5543 15.1075 17.298 15.1967 17.0199C15.2859 16.7418 15.3148 16.4482 15.2814 16.1583V7.25177L19.4382 5Z" fill="#0D67FE"/>
  </g>
  <defs>
    <clipPath id="a">
      <rect width="28" height="28" fill="#fff" rx="6"/>
    </clipPath>
  </defs>
</svg>
