<svg xmlns="http://www.w3.org/2000/svg" fill="none" viewBox="0 0 28 28">
  <g clip-path="url(#a)">
    <path fill="#3B99FC" d="M28 0H0v28h28V0Z"/>
    <path fill="#fff" d="M8.39 10.374a7.934 7.934 0 0 1 11.22 0l.373.373a.397.397 0 0 1 0 .56l-1.275 1.277a.198.198 0 0 1-.28 0l-.514-.514a5.535 5.535 0 0 0-7.828 0l-.55.55a.198.198 0 0 1-.28 0L7.98 11.344a.397.397 0 0 1 0-.56l.41-.41Zm13.858 2.638 1.136 1.135a.397.397 0 0 1 0 .561l-5.12 5.12a.397.397 0 0 1-.56 0l-3.634-3.634a.1.1 0 0 0-.14 0l-3.633 3.634a.397.397 0 0 1-.561 0l-5.12-5.12a.397.397 0 0 1 0-.56l1.136-1.136a.397.397 0 0 1 .56 0l3.634 3.633a.1.1 0 0 0 .14 0l3.633-3.633a.397.397 0 0 1 .562 0l3.633 3.633a.1.1 0 0 0 .14 0l3.633-3.633a.397.397 0 0 1 .561 0Z"/>
  </g>
  <defs>
    <clipPath id="a">
      <rect width="28" height="28" fill="#fff" rx="6"/>
    </clipPath>
  </defs>
</svg>
