<svg width="100" height="15" viewBox="0 0 100 15" fill="none" xmlns="http://www.w3.org/2000/svg">
<path d="M11.5714 10.779C10.8764 11.4574 9.98155 11.9263 9.00106 12.126C8.02056 12.3257 6.99884 12.2471 6.06619 11.9002C5.13355 11.5534 4.33228 10.9539 3.76457 10.1784C3.19686 9.40295 2.88845 8.48651 2.87868 7.54603C2.86891 6.60555 3.15822 5.68365 3.70971 4.89794C4.26121 4.11222 5.04988 3.4983 5.97514 3.13447C6.9004 2.77065 7.9203 2.67342 8.90475 2.85518C9.88921 3.03694 10.7936 3.48945 11.5026 4.155L13.5396 2.25C12.4277 1.2073 11.0101 0.49807 9.46701 0.212474C7.92395 -0.0731215 6.32515 0.0778141 4.87384 0.646094C3.42253 1.21437 2.18426 2.17433 1.31644 3.40394C0.448617 4.63354 -0.00956029 6.07726 0.000151245 7.55156C0.00986278 9.02587 0.487023 10.4642 1.37098 11.6836C2.25493 12.9031 3.50576 13.8487 4.96444 14.4001C6.42313 14.9515 8.0238 15.0839 9.56297 14.7805C11.1021 14.4771 12.5103 13.7515 13.6085 12.696L11.5714 10.779ZM57.978 10.779C57.283 11.4574 56.3882 11.9263 55.4077 12.126C54.4272 12.3257 53.4055 12.2471 52.4728 11.9002C51.5402 11.5534 50.7389 10.9539 50.1712 10.1784C49.6035 9.40295 49.2951 8.48651 49.2853 7.54603C49.2755 6.60555 49.5649 5.68365 50.1163 4.89794C50.6678 4.11222 51.4565 3.4983 52.3818 3.13447C53.307 2.77065 54.3269 2.67342 55.3114 2.85518C56.2958 3.03694 57.2002 3.48945 57.9092 4.155L59.9415 2.25C58.8295 1.2073 57.4119 0.49807 55.8688 0.212474C54.3258 -0.0731215 52.727 0.0778141 51.2757 0.646094C49.8244 1.21437 48.5861 2.17433 47.7183 3.40394C46.8505 4.63354 46.3923 6.07726 46.402 7.55156C46.4117 9.02587 46.8889 10.4642 47.7728 11.6836C48.6568 12.9031 49.9076 13.8487 51.3663 14.4001C52.825 14.9515 54.4256 15.0839 55.9648 14.7805C57.504 14.4771 58.9121 13.7515 60.0103 12.696L57.978 10.779ZM22.4721 2.766C23.471 2.766 24.4474 3.04364 25.2779 3.56382C26.1085 4.084 26.7558 4.82335 27.138 5.68838C27.5203 6.5534 27.6203 7.50525 27.4254 8.42356C27.2305 9.34186 26.7495 10.1854 26.0432 10.8474C25.3369 11.5095 24.4371 11.9604 23.4574 12.143C22.4777 12.3257 21.4623 12.232 20.5394 11.8736C19.6166 11.5153 18.8279 10.9086 18.2729 10.1301C17.718 9.35157 17.4218 8.4363 17.4218 7.5C17.4235 6.24495 17.9561 5.04176 18.9029 4.15431C19.8496 3.26686 21.1332 2.76759 22.4721 2.766V2.766ZM22.4721 0.066C20.904 0.066 19.371 0.501871 18.0671 1.3185C16.7632 2.13513 15.7469 3.29583 15.1467 4.65386C14.5465 6.01188 14.3894 7.50623 14.6952 8.94796C15.001 10.3897 15.7561 11.714 16.8648 12.7535C17.9736 13.7931 19.3862 14.5011 20.9242 14.788C22.4622 15.075 24.0565 14.928 25.5054 14.3657C26.9542 13.8033 28.1927 12.8509 29.0642 11.6289C29.9356 10.4068 30.4009 8.96995 30.4013 7.5C30.4015 6.52389 30.1965 5.55731 29.7981 4.65547C29.3997 3.75363 28.8157 2.9342 28.0793 2.24399C27.343 1.55378 26.4688 1.00631 25.5067 0.632864C24.5446 0.259416 23.5134 0.0673029 22.4721 0.0675V0.066ZM41.9213 8.688V0H44.8017V15L34.8803 6.546V15H31.9999V0L41.9213 8.688ZM88.8368 0L82.6567 12.1635L81.2165 15L79.7763 12.165L73.5994 0H76.4798L81.2165 9.33L85.958 0H88.8368ZM93.279 2.7V6H98.3998V8.7H93.279V12.3H100V15H90.3986V0H100V2.7H93.279ZM76.4158 15H73.5354L68.8003 5.6685L64.0605 15H61.1801L67.3601 2.835L68.8003 0L70.2405 2.835L76.4158 15ZM68.7955 15L70.0501 12.5295L69.8901 12.2295L68.8003 10.05L67.5458 12.522L68.7955 15Z" fill="white"/>
</svg>
