<svg version="1.1" id="Layer_1" xmlns="http://www.w3.org/2000/svg" xmlns:xlink="http://www.w3.org/1999/xlink" x="0px" y="0px"
	 width="100%" viewBox="0 0 406 406" enable-background="new 0 0 406 406" xml:space="preserve">
<path fill="#FFFFFF" opacity="1.000000" stroke="none" 
	d="
M407.000000,167.000000 
	C407.000000,193.020889 407.000000,219.041794 406.649780,245.232178 
	C405.880127,245.893845 405.174194,246.338242 405.083038,246.885132 
	C402.534119,262.177704 397.382233,276.633148 391.020386,290.692505 
	C377.266602,321.087585 356.938873,346.302948 330.695404,366.784302 
	C305.973389,386.078247 278.292786,398.997192 247.466827,405.080048 
	C246.874649,405.196899 246.484436,406.337219 246.000000,407.000000 
	C219.979111,407.000000 193.958206,407.000000 167.767807,406.649719 
	C166.106293,405.859802 164.631714,405.345886 163.119751,404.991302 
	C125.001030,396.052063 91.538986,378.279419 63.666687,350.827057 
	C54.099472,341.403931 46.002361,330.361450 38.027946,319.476837 
	C25.180389,301.940674 16.780550,282.168488 10.992698,261.269379 
	C6.994514,246.832520 3.969284,232.237961 3.997351,217.159470 
	C4.011002,209.825974 3.737789,202.480560 4.070209,195.162155 
	C4.433902,187.155258 4.751644,179.068802 6.133521,171.200378 
	C10.078271,148.738892 17.602575,127.478943 29.024422,107.661201 
	C40.484215,87.777626 54.295296,69.921761 71.635780,54.635841 
	C87.942200,40.261463 105.961891,28.980068 125.642441,19.977106 
	C150.828827,8.455472 177.489548,3.846129 204.844574,3.205575 
	C215.725937,2.950773 226.699173,4.693736 237.564056,6.057167 
	C260.950012,8.991860 282.731323,16.939272 303.424622,28.039883 
	C329.685730,42.127266 351.802948,61.271511 369.369263,85.135956 
	C387.064209,109.175087 399.672852,135.838898 405.081116,165.529160 
	C405.188110,166.116470 406.337128,166.513962 407.000000,167.000000 
M217.534943,145.561050 
	C215.223068,143.037369 213.339096,139.804291 210.527832,138.108490 
	C195.568649,129.084976 180.322983,120.537979 165.292953,111.629509 
	C159.355743,108.110451 153.789276,108.178772 147.889877,111.584808 
	C132.759491,120.320435 117.586006,128.983383 102.348587,137.530670 
	C96.539795,140.789062 93.786324,145.349060 93.863808,152.118454 
	C94.064041,169.613297 94.061394,187.113434 93.865013,204.608368 
	C93.788963,211.383591 96.576363,215.884140 102.398827,219.146759 
	C117.208557,227.445343 132.015350,235.763702 146.571747,244.493607 
	C153.548630,248.677887 159.664810,248.461060 166.605576,244.397095 
	C194.325226,228.166611 222.248505,212.284241 250.044006,196.182587 
	C255.783798,192.857574 261.372559,192.729858 267.070099,195.962708 
	C275.027344,200.477753 282.943665,205.064911 290.896027,209.588623 
	C296.148438,212.576477 298.775543,217.126709 298.826538,223.093369 
	C298.906311,232.424484 298.924957,241.757675 298.819092,251.088287 
	C298.754181,256.810364 296.425262,261.253174 291.220276,264.196747 
	C282.962494,268.866791 274.846405,273.787689 266.676727,278.613190 
	C261.669312,281.570892 256.601044,281.793549 251.505478,278.906281 
	C243.107941,274.148071 234.690063,269.422852 226.368668,264.534088 
	C221.223450,261.511322 218.664352,256.987885 218.894119,250.844131 
	C219.102554,245.271057 218.938217,239.684036 218.938217,232.859390 
	C210.976044,237.586807 202.826782,240.591522 197.568039,246.272110 
	C194.662018,249.411224 196.580582,257.034515 196.371841,262.638153 
	C196.328690,263.796295 196.485336,264.963013 196.568451,266.124481 
	C196.944855,271.384796 199.589645,275.116882 204.138977,277.695892 
	C219.774536,286.559723 235.414215,295.417419 250.977463,304.407104 
	C256.588043,307.647858 261.897583,307.573029 267.470062,304.357544 
	C282.609039,295.621857 297.793793,286.964294 313.020020,278.381500 
	C319.117950,274.944183 322.060028,270.025146 321.991699,262.928894 
	C321.826416,245.766617 321.840485,228.600876 321.985962,211.438248 
	C322.044342,204.550262 319.242950,199.811905 313.235382,196.444427 
	C298.285706,188.064529 283.355774,179.636246 268.654144,170.832855 
	C261.665710,166.648132 255.513840,166.956573 248.609299,171.025818 
	C221.220886,187.167465 193.609283,202.930161 166.202621,219.041229 
	C159.591599,222.927536 153.533752,223.102325 147.008972,219.102921 
	C139.492401,214.495651 131.769882,210.224289 124.135765,205.808853 
	C118.966599,202.819077 116.109680,198.415146 116.083099,192.374359 
	C116.042023,183.042740 116.032295,173.710556 116.088783,164.379089 
	C116.123749,158.603928 118.534096,154.098007 123.629471,151.181412 
	C131.718582,146.551178 139.846710,141.988205 147.900024,137.296692 
	C153.480560,134.045700 158.951614,134.187012 164.464844,137.354706 
	C172.257431,141.832031 180.043442,146.320969 187.852875,150.768768 
	C193.409164,153.933304 196.271637,158.542633 196.090744,165.063660 
	C195.936386,170.628265 196.058823,176.200577 196.058823,182.730011 
	C203.568253,178.385834 210.190506,174.651993 216.673462,170.690247 
	C217.553619,170.152374 218.169998,168.473312 218.170700,167.322189 
	C218.174911,160.332062 217.965210,153.341797 217.534943,145.561050 
z"/>
<path fill="#000000" opacity="1.000000" stroke="none" 
	d="
M407.000000,166.531342 
	C406.337128,166.513962 405.188110,166.116470 405.081116,165.529160 
	C399.672852,135.838898 387.064209,109.175087 369.369263,85.135956 
	C351.802948,61.271511 329.685730,42.127266 303.424622,28.039883 
	C282.731323,16.939272 260.950012,8.991860 237.564056,6.057167 
	C226.699173,4.693736 215.725937,2.950773 204.844574,3.205575 
	C177.489548,3.846129 150.828827,8.455472 125.642441,19.977106 
	C105.961891,28.980068 87.942200,40.261463 71.635780,54.635841 
	C54.295296,69.921761 40.484215,87.777626 29.024422,107.661201 
	C17.602575,127.478943 10.078271,148.738892 6.133521,171.200378 
	C4.751644,179.068802 4.433902,187.155258 4.070209,195.162155 
	C3.737789,202.480560 4.011002,209.825974 3.997351,217.159470 
	C3.969284,232.237961 6.994514,246.832520 10.992698,261.269379 
	C16.780550,282.168488 25.180389,301.940674 38.027946,319.476837 
	C46.002361,330.361450 54.099472,341.403931 63.666687,350.827057 
	C91.538986,378.279419 125.001030,396.052063 163.119751,404.991302 
	C164.631714,405.345886 166.106293,405.859802 167.299149,406.649719 
	C111.687820,407.000000 56.375648,407.000000 1.031736,407.000000 
	C1.031736,271.739563 1.031736,136.479141 1.031736,1.109356 
	C136.333298,1.109356 271.666626,1.109356 407.000000,1.109356 
	C407.000000,56.104797 407.000000,111.083740 407.000000,166.531342 
z"/>
<path fill="#000000" opacity="1.000000" stroke="none" 
	d="
M246.468658,407.000000 
	C246.484436,406.337219 246.874649,405.196899 247.466827,405.080048 
	C278.292786,398.997192 305.973389,386.078247 330.695404,366.784302 
	C356.938873,346.302948 377.266602,321.087585 391.020386,290.692505 
	C397.382233,276.633148 402.534119,262.177704 405.083038,246.885132 
	C405.174194,246.338242 405.880127,245.893845 406.649780,245.700836 
	C407.000000,299.593689 407.000000,353.187347 407.000000,407.000000 
	C353.645966,407.000000 300.291656,407.000000 246.468658,407.000000 
z"/>
<path fill="#8349E5" opacity="1.000000" stroke="none" 
	d="
M217.680939,145.956314 
	C217.965210,153.341797 218.174911,160.332062 218.170700,167.322189 
	C218.169998,168.473312 217.553619,170.152374 216.673462,170.690247 
	C210.190506,174.651993 203.568253,178.385834 196.058823,182.730011 
	C196.058823,176.200577 195.936386,170.628265 196.090744,165.063660 
	C196.271637,158.542633 193.409164,153.933304 187.852875,150.768768 
	C180.043442,146.320969 172.257431,141.832031 164.464844,137.354706 
	C158.951614,134.187012 153.480560,134.045700 147.900024,137.296692 
	C139.846710,141.988205 131.718582,146.551178 123.629471,151.181412 
	C118.534096,154.098007 116.123749,158.603928 116.088783,164.379089 
	C116.032295,173.710556 116.042023,183.042740 116.083099,192.374359 
	C116.109680,198.415146 118.966599,202.819077 124.135765,205.808853 
	C131.769882,210.224289 139.492401,214.495651 147.008972,219.102921 
	C153.533752,223.102325 159.591599,222.927536 166.202621,219.041229 
	C193.609283,202.930161 221.220886,187.167465 248.609299,171.025818 
	C255.513840,166.956573 261.665710,166.648132 268.654144,170.832855 
	C283.355774,179.636246 298.285706,188.064529 313.235382,196.444427 
	C319.242950,199.811905 322.044342,204.550262 321.985962,211.438248 
	C321.840485,228.600876 321.826416,245.766617 321.991699,262.928894 
	C322.060028,270.025146 319.117950,274.944183 313.020020,278.381500 
	C297.793793,286.964294 282.609039,295.621857 267.470062,304.357544 
	C261.897583,307.573029 256.588043,307.647858 250.977463,304.407104 
	C235.414215,295.417419 219.774536,286.559723 204.138977,277.695892 
	C199.589645,275.116882 196.944855,271.384796 196.568451,266.124481 
	C196.485336,264.963013 196.328690,263.796295 196.371841,262.638153 
	C196.580582,257.034515 194.662018,249.411224 197.568039,246.272110 
	C202.826782,240.591522 210.976044,237.586807 218.938217,232.859390 
	C218.938217,239.684036 219.102554,245.271057 218.894119,250.844131 
	C218.664352,256.987885 221.223450,261.511322 226.368668,264.534088 
	C234.690063,269.422852 243.107941,274.148071 251.505478,278.906281 
	C256.601044,281.793549 261.669312,281.570892 266.676727,278.613190 
	C274.846405,273.787689 282.962494,268.866791 291.220276,264.196747 
	C296.425262,261.253174 298.754181,256.810364 298.819092,251.088287 
	C298.924957,241.757675 298.906311,232.424484 298.826538,223.093369 
	C298.775543,217.126709 296.148438,212.576477 290.896027,209.588623 
	C282.943665,205.064911 275.027344,200.477753 267.070099,195.962708 
	C261.372559,192.729858 255.783798,192.857574 250.044006,196.182587 
	C222.248505,212.284241 194.325226,228.166611 166.605576,244.397095 
	C159.664810,248.461060 153.548630,248.677887 146.571747,244.493607 
	C132.015350,235.763702 117.208557,227.445343 102.398827,219.146759 
	C96.576363,215.884140 93.788963,211.383591 93.865013,204.608368 
	C94.061394,187.113434 94.064041,169.613297 93.863808,152.118454 
	C93.786324,145.349060 96.539795,140.789062 102.348587,137.530670 
	C117.586006,128.983383 132.759491,120.320435 147.889877,111.584808 
	C153.789276,108.178772 159.355743,108.110451 165.292953,111.629509 
	C180.322983,120.537979 195.568649,129.084976 210.527832,138.108490 
	C213.339096,139.804291 215.223068,143.037369 217.680939,145.956314 
z"/>
</svg>