<svg width="18" height="9" viewBox="0 0 18 9" fill="none" xmlns="http://www.w3.org/2000/svg">
<path d="M4.5 8.18227e-05C2.02432 8.18227e-05 0 2.02436 0 4.5C0 6.97564 2.02432 8.99992 4.5 8.99992H6.13636C6.24478 9.00145 6.35242 8.98142 6.45304 8.94099C6.55365 8.90056 6.64522 8.84054 6.72243 8.76442C6.79964 8.68829 6.86095 8.59758 6.9028 8.49755C6.94465 8.39753 6.9662 8.29018 6.9662 8.18175C6.9662 8.07332 6.94465 7.96598 6.9028 7.86595C6.86095 7.76592 6.79964 7.67521 6.72243 7.59909C6.64522 7.52296 6.55365 7.46294 6.45304 7.42251C6.35242 7.38208 6.24478 7.36205 6.13636 7.36358H4.5C2.9085 7.36358 1.63636 6.09147 1.63636 4.5C1.63636 2.90853 2.9085 1.63642 4.5 1.63642H6.13636C6.24478 1.63795 6.35242 1.61792 6.45304 1.57749C6.55365 1.53706 6.64522 1.47704 6.72243 1.40091C6.79964 1.32479 6.86095 1.23408 6.9028 1.13405C6.94465 1.03402 6.9662 0.926676 6.9662 0.818249C6.9662 0.709821 6.94465 0.602475 6.9028 0.502448C6.86095 0.402421 6.79964 0.311709 6.72243 0.235583C6.64522 0.159457 6.55365 0.0994357 6.45304 0.059007C6.35242 0.0185783 6.24478 -0.00145146 6.13636 8.18227e-05H4.5ZM11.8636 8.18227e-05C11.7552 -0.00145146 11.6476 0.0185783 11.547 0.059007C11.4464 0.0994357 11.3548 0.159457 11.2776 0.235583C11.2004 0.311709 11.139 0.402421 11.0972 0.502448C11.0554 0.602475 11.0338 0.709821 11.0338 0.818249C11.0338 0.926676 11.0554 1.03402 11.0972 1.13405C11.139 1.23408 11.2004 1.32479 11.2776 1.40091C11.3548 1.47704 11.4464 1.53706 11.547 1.57749C11.6476 1.61792 11.7552 1.63795 11.8636 1.63642H13.5C15.0915 1.63642 16.3636 2.90853 16.3636 4.5C16.3636 6.09147 15.0915 7.36358 13.5 7.36358H11.8636C11.7552 7.36205 11.6476 7.38208 11.547 7.42251C11.4464 7.46294 11.3548 7.52296 11.2776 7.59909C11.2004 7.67521 11.139 7.76592 11.0972 7.86595C11.0554 7.96598 11.0338 8.07332 11.0338 8.18175C11.0338 8.29018 11.0554 8.39753 11.0972 8.49755C11.139 8.59758 11.2004 8.68829 11.2776 8.76442C11.3548 8.84054 11.4464 8.90056 11.547 8.94099C11.6476 8.98142 11.7552 9.00145 11.8636 8.99992H13.5C15.9757 8.99992 18 6.97564 18 4.5C18 2.02436 15.9757 8.18227e-05 13.5 8.18227e-05H11.8636ZM4.09091 3.68183C3.98249 3.6803 3.87485 3.70033 3.77424 3.74076C3.67363 3.78119 3.58206 3.84121 3.50484 3.91733C3.42763 3.99346 3.36632 4.08417 3.32447 4.1842C3.28262 4.28423 3.26107 4.39157 3.26107 4.5C3.26107 4.60843 3.28262 4.71577 3.32447 4.8158C3.36632 4.91583 3.42763 5.00654 3.50484 5.08267C3.58206 5.15879 3.67363 5.21881 3.77424 5.25924C3.87485 5.29967 3.98249 5.3197 4.09091 5.31817H13.9091C14.0175 5.3197 14.1252 5.29967 14.2258 5.25924C14.3264 5.21881 14.4179 5.15879 14.4952 5.08267C14.5724 5.00654 14.6337 4.91583 14.6755 4.8158C14.7174 4.71577 14.7389 4.60843 14.7389 4.5C14.7389 4.39157 14.7174 4.28423 14.6755 4.1842C14.6337 4.08417 14.5724 3.99346 14.4952 3.91733C14.4179 3.84121 14.3264 3.78119 14.2258 3.74076C14.1252 3.70033 14.0175 3.6803 13.9091 3.68183H4.09091Z" fill="#2E97E2"/>
</svg>
