<svg width="18" height="11" viewBox="0 0 18 11" fill="none" xmlns="http://www.w3.org/2000/svg">
<path d="M5.1 0C4.43026 -9.97993e-09 3.76708 0.131915 3.14831 0.388214C2.52955 0.644513 1.96733 1.02018 1.49376 1.49376C1.02018 1.96733 0.644513 2.52955 0.388214 3.14831C0.131915 3.76707 0 4.43026 0 5.1C0 5.76974 0.131915 6.43292 0.388214 7.05169C0.644513 7.67045 1.02018 8.23267 1.49376 8.70624C1.96733 9.17982 2.52955 9.55549 3.14831 9.81178C3.76708 10.0681 4.43026 10.2 5.1 10.2C5.76974 10.2 6.43293 10.0681 7.05169 9.81178C7.67045 9.55549 8.23267 9.17982 8.70624 8.70624C9.17982 8.23267 9.55549 7.67045 9.81179 7.05169C10.0681 6.43292 10.2 5.76974 10.2 5.1C10.2 4.43026 10.0681 3.76707 9.81179 3.14831C9.55549 2.52955 9.17982 1.96733 8.70624 1.49376C8.23267 1.02018 7.67045 0.644513 7.05169 0.388214C6.43293 0.131915 5.76974 -9.97993e-09 5.1 0ZM13.2 0.6C12.8848 0.6 12.5727 0.716396 12.2816 0.942542C11.9904 1.16869 11.7258 1.50016 11.5029 1.91802C11.2801 2.33588 11.1033 2.83196 10.9827 3.37792C10.8621 3.92389 10.8 4.50905 10.8 5.1C10.8 5.69095 10.8621 6.27611 10.9827 6.82207C11.1033 7.36804 11.2801 7.86412 11.5029 8.28198C11.7258 8.69984 11.9904 9.03131 12.2816 9.25746C12.5727 9.4836 12.8848 9.6 13.2 9.6C13.5152 9.6 13.8273 9.4836 14.1184 9.25746C14.4096 9.03131 14.6742 8.69984 14.8971 8.28198C15.1199 7.86412 15.2967 7.36804 15.4173 6.82207C15.5379 6.27611 15.6 5.69095 15.6 5.1C15.6 4.50905 15.5379 3.92389 15.4173 3.37792C15.2967 2.83196 15.1199 2.33588 14.8971 1.91802C14.6742 1.50016 14.4096 1.16869 14.1184 0.942542C13.8273 0.716396 13.5152 0.6 13.2 0.6ZM17.1 1.2C16.8613 1.2 16.6324 1.61089 16.4636 2.34228C16.2948 3.07368 16.2 4.06566 16.2 5.1C16.2 6.13434 16.2948 7.12632 16.4636 7.85772C16.6324 8.58911 16.8613 9 17.1 9C17.3387 9 17.5676 8.58911 17.7364 7.85772C17.9052 7.12632 18 6.13434 18 5.1C18 4.06566 17.9052 3.07368 17.7364 2.34228C17.5676 1.61089 17.3387 1.2 17.1 1.2Z" fill="#5F7A99"/>
</svg>
