<svg width="154" height="69" viewBox="0 0 154 69" fill="none" xmlns="http://www.w3.org/2000/svg">
<g filter="url(#filter0_d_2412_23494)">
<path d="M38.5714 37.779C37.8764 38.4574 36.9816 38.9263 36.0011 39.126C35.0206 39.3257 33.9988 39.2471 33.0662 38.9002C32.1336 38.5534 31.3323 37.9539 30.7646 37.1784C30.1969 36.4029 29.8884 35.4865 29.8787 34.546C29.8689 33.6055 30.1582 32.6837 30.7097 31.8979C31.2612 31.1122 32.0499 30.4983 32.9751 30.1345C33.9004 29.7706 34.9203 29.6734 35.9048 29.8552C36.8892 30.0369 37.7936 30.4895 38.5026 31.155L40.5396 29.25C39.4277 28.2073 38.0101 27.4981 36.467 27.2125C34.924 26.9269 33.3252 27.0778 31.8738 27.6461C30.4225 28.2144 29.1843 29.1743 28.3164 30.4039C27.4486 31.6335 26.9904 33.0773 27.0002 34.5516C27.0099 36.0259 27.487 37.4642 28.371 38.6836C29.2549 39.9031 30.5058 40.8487 31.9644 41.4001C33.4231 41.9515 35.0238 42.0839 36.563 41.7805C38.1021 41.4771 39.5103 40.7515 40.6085 39.696L38.5714 37.779ZM84.978 37.779C84.283 38.4574 83.3882 38.9263 82.4077 39.126C81.4272 39.3257 80.4055 39.2471 79.4728 38.9002C78.5402 38.5534 77.7389 37.9539 77.1712 37.1784C76.6035 36.4029 76.2951 35.4865 76.2853 34.546C76.2755 33.6055 76.5649 32.6837 77.1163 31.8979C77.6678 31.1122 78.4565 30.4983 79.3818 30.1345C80.307 29.7706 81.3269 29.6734 82.3114 29.8552C83.2958 30.0369 84.2002 30.4895 84.9092 31.155L86.9415 29.25C85.8295 28.2073 84.4119 27.4981 82.8688 27.2125C81.3258 26.9269 79.727 27.0778 78.2757 27.6461C76.8244 28.2144 75.5861 29.1743 74.7183 30.4039C73.8505 31.6335 73.3923 33.0773 73.402 34.5516C73.4117 36.0259 73.8889 37.4642 74.7728 38.6836C75.6568 39.9031 76.9076 40.8487 78.3663 41.4001C79.825 41.9515 81.4256 42.0839 82.9648 41.7805C84.504 41.4771 85.9121 40.7515 87.0103 39.696L84.978 37.779ZM49.4721 29.766C50.471 29.766 51.4474 30.0436 52.2779 30.5638C53.1085 31.084 53.7558 31.8234 54.138 32.6884C54.5203 33.5534 54.6203 34.5053 54.4254 35.4236C54.2305 36.3419 53.7495 37.1854 53.0432 37.8474C52.3369 38.5095 51.4371 38.9604 50.4574 39.143C49.4777 39.3257 48.4623 39.232 47.5394 38.8736C46.6166 38.5153 45.8279 37.9086 45.2729 37.1301C44.718 36.3516 44.4218 35.4363 44.4218 34.5C44.4235 33.245 44.9561 32.0418 45.9029 31.1543C46.8496 30.2669 48.1332 29.7676 49.4721 29.766ZM49.4721 27.066C47.904 27.066 46.371 27.5019 45.0671 28.3185C43.7632 29.1351 42.7469 30.2958 42.1467 31.6539C41.5465 33.0119 41.3894 34.5062 41.6952 35.948C42.001 37.3897 42.7561 38.714 43.8648 39.7535C44.9736 40.7931 46.3862 41.5011 47.9242 41.788C49.4622 42.075 51.0565 41.928 52.5054 41.3657C53.9542 40.8033 55.1927 39.8509 56.0642 38.6289C56.9356 37.4068 57.4009 35.9699 57.4013 34.5C57.4015 33.5239 57.1965 32.5573 56.7981 31.6555C56.3997 30.7536 55.8157 29.9342 55.0793 29.244C54.343 28.5538 53.4688 28.0063 52.5067 27.6329C51.5446 27.2594 50.5134 27.0673 49.4721 27.0675V27.066ZM68.9213 35.688V27H71.8017V42L61.8803 33.546V42H58.9999V27L68.9213 35.688ZM115.837 27L109.657 39.1635L108.217 42L106.776 39.165L100.599 27H103.48L108.217 36.33L112.958 27H115.837ZM120.279 29.7V33H125.4V35.7H120.279V39.3H127V42H117.399V27H127V29.7H120.279ZM103.416 42H100.535L95.8003 32.6685L91.0605 42H88.1801L94.3601 29.835L95.8003 27L97.2405 29.835L103.416 42ZM95.7955 42L97.0501 39.5295L96.8901 39.2295L95.8003 37.05L94.5458 39.522L95.7955 42Z" fill="white"/>
</g>
<defs>
<filter id="filter0_d_2412_23494" x="0" y="0" width="154" height="69" filterUnits="userSpaceOnUse" color-interpolation-filters="sRGB">
<feFlood flood-opacity="0" result="BackgroundImageFix"/>
<feColorMatrix in="SourceAlpha" type="matrix" values="0 0 0 0 0 0 0 0 0 0 0 0 0 0 0 0 0 0 127 0" result="hardAlpha"/>
<feOffset/>
<feGaussianBlur stdDeviation="13.5"/>
<feComposite in2="hardAlpha" operator="out"/>
<feColorMatrix type="matrix" values="0 0 0 0 0.506217 0 0 0 0 0.70373 0 0 0 0 1 0 0 0 0.31 0"/>
<feBlend mode="normal" in2="BackgroundImageFix" result="effect1_dropShadow_2412_23494"/>
<feBlend mode="normal" in="SourceGraphic" in2="effect1_dropShadow_2412_23494" result="shape"/>
</filter>
</defs>
</svg>
