<svg width="20" height="14" viewBox="0 0 20 14" fill="none" xmlns="http://www.w3.org/2000/svg">
<path d="M16.7466 1.63055C15.1306 0.331887 12.5753 0.111887 12.4673 0.102553C12.2966 0.0878867 12.1346 0.184554 12.0646 0.340554C12.062 0.345887 11.9193 0.759887 11.7813 1.15922C13.6593 1.48789 14.9353 2.21722 15.0033 2.25722C15.322 2.44255 15.4286 2.85122 15.2426 3.16922C15.1193 3.38122 14.896 3.49989 14.6666 3.49989C14.5526 3.49989 14.438 3.47122 14.3326 3.40989C14.314 3.39855 12.442 2.33322 10.0013 2.33322C7.55996 2.33322 5.68729 3.39922 5.66863 3.40989C5.35063 3.59455 4.94263 3.48589 4.75796 3.16722C4.57329 2.84989 4.68063 2.44255 4.99796 2.25722C5.06596 2.21722 6.34663 1.48522 8.22996 1.15722C8.08463 0.75322 7.93796 0.345887 7.93529 0.340554C7.86529 0.183887 7.70329 0.08522 7.53263 0.102553C7.42463 0.11122 4.86929 0.33122 3.23196 1.64789C2.37596 2.43855 0.666626 7.06122 0.666626 11.0579C0.666626 11.1286 0.684626 11.1972 0.719959 11.2586C1.90063 13.3319 5.11929 13.8746 5.85263 13.8979C5.85729 13.8986 5.86129 13.8986 5.86529 13.8986C5.99463 13.8986 6.11663 13.8366 6.19329 13.7319L6.98663 12.6572C5.24663 12.2379 4.32663 11.5786 4.27129 11.5379C3.97529 11.3199 3.91129 10.9026 4.12929 10.6059C4.34663 10.3106 4.76263 10.2452 5.05863 10.4619C5.08329 10.4779 6.78129 11.6666 9.99996 11.6666C13.2313 11.6666 14.9246 10.4732 14.9413 10.4612C15.2373 10.2466 15.6546 10.3112 15.8713 10.6086C16.0873 10.9046 16.0246 11.3192 15.73 11.5366C15.6746 11.5772 14.7593 12.2352 13.0233 12.6546L13.8066 13.7312C13.8833 13.8366 14.0053 13.8979 14.1346 13.8979C14.1393 13.8979 14.1433 13.8979 14.1473 13.8972C14.8813 13.8739 18.1 13.3312 19.28 11.2579C19.3153 11.1966 19.3333 11.1279 19.3333 11.0572C19.3333 7.06122 17.624 2.43855 16.7466 1.63055ZM7.33329 9.66655C6.59663 9.66655 5.99996 8.92055 5.99996 7.99989C5.99996 7.07922 6.59663 6.33322 7.33329 6.33322C8.06996 6.33322 8.66663 7.07922 8.66663 7.99989C8.66663 8.92055 8.06996 9.66655 7.33329 9.66655ZM12.6666 9.66655C11.93 9.66655 11.3333 8.92055 11.3333 7.99989C11.3333 7.07922 11.93 6.33322 12.6666 6.33322C13.4033 6.33322 14 7.07922 14 7.99989C14 8.92055 13.4033 9.66655 12.6666 9.66655Z" fill="#5F7A99"/>
</svg>
