<svg width="20" height="17" viewBox="0 0 20 17" fill="none" xmlns="http://www.w3.org/2000/svg">
<path d="M2.40005 0V14H2.80005C6.6938 14 9.82036 15.5578 9.82036 15.5578L10 15.6469L10.1797 15.5578C10.1797 15.5578 13.3063 14 17.2001 14H17.6V0H17.2001C13.2641 0 10.2563 1.44844 10 1.575C9.7438 1.44844 6.73599 0 2.80005 0H2.40005ZM3.20005 0.835938C6.49849 0.929688 9.06099 2.01875 9.60005 2.2625V14.6016C8.74849 14.2344 6.35474 13.3203 3.20005 13.2359V0.835938ZM16.8001 0.835938V13.2359C13.6454 13.3203 11.2516 14.2344 10.4 14.6016V2.2625C10.9391 2.01875 13.5016 0.929688 16.8001 0.835938ZM0.800049 2V15.6H1.20005C6.31724 15.6 9.83755 17.1656 9.83755 17.1656L10 17.2375L10.1625 17.1656C10.1625 17.1656 13.6829 15.6 18.8001 15.6H19.2001V2H18.4001V14.8281C13.5204 14.9109 10.2235 16.2844 10 16.3812C9.77661 16.2844 6.47974 14.9109 1.60005 14.8281V2H0.800049Z" fill="#5F7A99"/>
</svg>
