<svg xmlns="http://www.w3.org/2000/svg" fill="none" viewBox="0 -2 20 20">
  <path fill="#5F7A99" d="M2.175 0a.973.973 0 0 0-.959.986v3.406a.973.973 0 0 0 .973.973h3.406a.973.973 0 1 0 0-1.946h-.876A7 7 0 0 1 9 1.959c1.643 0 3.053.547 4.265 1.496a.973.973 0 1 0 1.2-1.532C12.951.74 11.084.013 9 .013a8.972 8.972 0 0 0-5.838 2.155V.986A.973.973 0 0 0 2.175 0Zm14.122 4.392a.973.973 0 1 0 0 1.946.973.973 0 0 0 0-1.946ZM.973 7.797a.973.973 0 1 0 0 1.946.973.973 0 0 0 0-1.946Zm16.054 0a.973.973 0 1 0 0 1.946.973.973 0 0 0 0-1.946ZM1.703 11.203a.973.973 0 1 0 0 1.945.973.973 0 0 0 0-1.945Zm10.702.973a.973.973 0 1 0 0 1.945h.876A7 7 0 0 1 9 15.581c-1.644 0-3.053-.546-4.265-1.496a.973.973 0 1 0-1.2 1.532c1.513 1.184 3.38 1.91 5.465 1.91a8.972 8.972 0 0 0 5.838-2.155v1.182a.973.973 0 1 0 1.946 0v-3.405a.973.973 0 0 0-.973-.973h-3.406Z"/>
</svg>