<svg width="36" height="291" viewBox="0 0 36 291" fill="none" xmlns="http://www.w3.org/2000/svg">
<g filter="url(#filter0_dii_5770_6506)">
<path d="M32 278.5H25C16.1634 278.5 9 271.337 9 262.5V22.5C9 10.3497 18.8497 0.5 31 0.5H32M32 82V82C24.5442 82 18.5 75.9558 18.5 68.5V23C18.5 15.5442 24.5442 9.5 32 9.5V9.5M32 179.5H29.5C20.6634 179.5 13.5 172.337 13.5 163.5V23C13.5 13.0589 21.5589 5 31.5 5H32" stroke="url(#paint0_linear_5770_6506)"/>
</g>
<defs>
<filter id="filter0_dii_5770_6506" x="0.5" y="0" width="35.5" height="291" filterUnits="userSpaceOnUse" color-interpolation-filters="sRGB">
<feFlood flood-opacity="0" result="BackgroundImageFix"/>
<feColorMatrix in="SourceAlpha" type="matrix" values="0 0 0 0 0 0 0 0 0 0 0 0 0 0 0 0 0 0 127 0" result="hardAlpha"/>
<feOffset dx="-2" dy="6"/>
<feGaussianBlur stdDeviation="3"/>
<feComposite in2="hardAlpha" operator="out"/>
<feColorMatrix type="matrix" values="0 0 0 0 0.0493835 0 0 0 0 0.0647473 0 0 0 0 0.087793 0 0 0 0.33 0"/>
<feBlend mode="normal" in2="BackgroundImageFix" result="effect1_dropShadow_5770_6506"/>
<feBlend mode="normal" in="SourceGraphic" in2="effect1_dropShadow_5770_6506" result="shape"/>
<feColorMatrix in="SourceAlpha" type="matrix" values="0 0 0 0 0 0 0 0 0 0 0 0 0 0 0 0 0 0 127 0" result="hardAlpha"/>
<feOffset dx="-1" dy="1"/>
<feGaussianBlur stdDeviation="1"/>
<feComposite in2="hardAlpha" operator="arithmetic" k2="-1" k3="1"/>
<feColorMatrix type="matrix" values="0 0 0 0 0.502051 0 0 0 0 0.731107 0 0 0 0 1 0 0 0 0.1 0"/>
<feBlend mode="normal" in2="shape" result="effect2_innerShadow_5770_6506"/>
<feColorMatrix in="SourceAlpha" type="matrix" values="0 0 0 0 0 0 0 0 0 0 0 0 0 0 0 0 0 0 127 0" result="hardAlpha"/>
<feOffset/>
<feGaussianBlur stdDeviation="10"/>
<feComposite in2="hardAlpha" operator="arithmetic" k2="-1" k3="1"/>
<feColorMatrix type="matrix" values="0 0 0 0 0.370058 0 0 0 0 0.634947 0 0 0 0 0.87946 0 0 0 0.05 0"/>
<feBlend mode="normal" in2="effect2_innerShadow_5770_6506" result="effect3_innerShadow_5770_6506"/>
</filter>
<linearGradient id="paint0_linear_5770_6506" x1="9" y1="143.984" x2="32" y2="143.984" gradientUnits="userSpaceOnUse">
<stop stop-color="#72639B"/>
<stop offset="1" stop-color="#44B9DE"/>
</linearGradient>
</defs>
</svg>
