<svg width="21" height="12" viewBox="0 0 21 12" fill="none" xmlns="http://www.w3.org/2000/svg">
<path d="M12.3021 5.94072C12.2998 4.02414 12.6709 2.12549 13.3947 0.351036C13.4111 0.312823 13.4177 0.271096 13.4138 0.229683C13.4099 0.18827 13.3956 0.1485 13.3724 0.114034C13.3491 0.0797034 13.3178 0.0515746 13.2812 0.0320927C13.2446 0.0126107 13.2038 0.00236433 13.1623 0.00224055H7.12973C7.08831 0.00255434 7.04758 0.0128864 7.01101 0.032352C6.97444 0.0518175 6.94312 0.0798394 6.91971 0.114034C6.89643 0.1485 6.88219 0.18827 6.87829 0.229683C6.87439 0.271096 6.88095 0.312823 6.89737 0.351036C8.36872 3.97135 8.35346 8.02637 6.85492 11.6355C6.83844 11.6757 6.83206 11.7194 6.83634 11.7626C6.84063 11.8059 6.85544 11.8475 6.87949 11.8837C6.90394 11.9203 6.93723 11.9502 6.97629 11.9705C7.01535 11.9908 7.05891 12.0009 7.10292 11.9999H13.1981C13.242 12.0003 13.2853 11.99 13.3243 11.9697C13.3633 11.9494 13.3966 11.9199 13.4215 11.8837C13.4448 11.8471 13.4591 11.8055 13.4629 11.7623C13.4668 11.7191 13.4603 11.6756 13.4439 11.6355C12.6886 9.83213 12.3004 7.89608 12.3021 5.94072ZM11.3012 10.4661H8.99537C8.98297 10.4658 8.9708 10.4627 8.95975 10.4571C8.94871 10.4515 8.93907 10.4434 8.93156 10.4335C8.92405 10.4236 8.91886 10.4122 8.91637 10.4C8.91387 10.3879 8.91415 10.3753 8.91717 10.3633C9.71425 7.5129 9.72583 4.4998 8.95068 1.64337C8.9472 1.63131 8.94658 1.61859 8.94888 1.60624C8.95119 1.5939 8.95635 1.58227 8.96395 1.57227C8.97155 1.56228 8.98137 1.5542 8.99265 1.54868C9.00393 1.54317 9.01634 1.54038 9.02888 1.54052H11.2632C11.2757 1.54024 11.2881 1.54298 11.2994 1.5485C11.3106 1.55402 11.3204 1.56216 11.3278 1.57224C11.3353 1.58232 11.3402 1.59404 11.3421 1.60642C11.3441 1.6188 11.3431 1.63147 11.3392 1.64337C10.564 4.4998 10.5756 7.5129 11.3727 10.3633C11.3756 10.3748 11.3761 10.3868 11.374 10.3985C11.3718 10.4102 11.3672 10.4213 11.3605 10.4311C11.3537 10.4409 11.3449 10.449 11.3346 10.4551C11.3244 10.4611 11.313 10.4649 11.3012 10.4661ZM4.9781 5.94072C4.97544 4.02389 5.34736 2.12504 6.07291 0.351036C6.08873 0.312571 6.09481 0.270793 6.09062 0.22941C6.08643 0.188028 6.07208 0.148322 6.04888 0.113816C6.02567 0.0793096 5.99431 0.0510722 5.95758 0.0316082C5.92084 0.0121443 5.87987 0.00205589 5.8383 0.00224055H1.36971C1.32154 0.0047143 1.27504 0.020702 1.23553 0.04838C1.19602 0.076058 1.16508 0.114311 1.14628 0.158754C0.380909 2.01309 -0.00867526 4.00111 0.000146535 6.00737C0.00896833 8.01363 0.416023 9.99815 1.19767 11.8457C1.21589 11.8903 1.24673 11.9287 1.28642 11.9561C1.3261 11.9835 1.3729 11.9987 1.4211 11.9999H5.8897C5.93115 11.9998 5.97195 11.9896 6.00855 11.9701C6.04515 11.9506 6.07645 11.9225 6.09972 11.8881C6.12245 11.853 6.13635 11.8129 6.14024 11.7713C6.14413 11.7296 6.1379 11.6876 6.12207 11.6489C5.36401 9.84161 4.97505 7.90077 4.9781 5.94072ZM3.97714 10.4661H2.34386C2.32697 10.466 2.31051 10.4608 2.29658 10.4512C2.28265 10.4417 2.27188 10.4282 2.26566 10.4125C1.27484 7.55651 1.26148 4.45187 2.22768 1.58747C2.23285 1.57134 2.24298 1.55725 2.25662 1.54722C2.27026 1.53718 2.28671 1.53171 2.30364 1.53158H3.95479C3.96719 1.53187 3.97937 1.53496 3.99041 1.5406C4.00146 1.54625 4.01109 1.55431 4.0186 1.56419C4.02611 1.57406 4.03131 1.58551 4.0338 1.59767C4.03629 1.60983 4.03601 1.62239 4.03299 1.63443C3.25856 4.49085 3.26937 7.50355 4.06427 10.3543C4.06939 10.3677 4.07097 10.3821 4.06887 10.3962C4.06677 10.4103 4.06106 10.4236 4.05229 10.4349C4.04352 10.4461 4.03199 10.4549 4.01882 10.4604C4.00565 10.4659 3.99129 10.4678 3.97714 10.4661ZM19.1704 0.156516C19.1508 0.110383 19.1181 0.0709877 19.0764 0.0431806C19.0348 0.0153735 18.9859 0.000364877 18.9358 2.49001e-06H14.456C14.4144 -0.000182165 14.3735 0.0099062 14.3367 0.0293702C14.3 0.0488341 14.2686 0.0770715 14.2454 0.111578C14.2222 0.146084 14.2079 0.185796 14.2037 0.227179C14.1995 0.268561 14.2056 0.310333 14.2214 0.348798C15.6972 3.97321 15.6803 8.03467 14.1745 11.6467C14.1582 11.6852 14.1517 11.7273 14.1557 11.769C14.1596 11.8107 14.1739 11.8507 14.1972 11.8855C14.2204 11.9203 14.252 11.9488 14.289 11.9684C14.326 11.988 14.3672 11.998 14.4091 11.9977H18.8777C18.9276 11.9978 18.9764 11.9833 19.0181 11.9558C19.0598 11.9284 19.0926 11.8893 19.1123 11.8434C19.8928 9.99558 20.2991 8.01105 20.3076 6.0049C20.316 3.99875 19.9264 2.01088 19.1614 0.156516H19.1704ZM18.0309 10.4125C18.0249 10.4284 18.0142 10.442 18.0002 10.4516C17.9862 10.4612 17.9696 10.4663 17.9527 10.4661H16.3194C16.307 10.4658 16.2948 10.4627 16.2838 10.4571C16.2727 10.4515 16.2631 10.4434 16.2556 10.4335C16.2481 10.4236 16.2429 10.4122 16.2404 10.4C16.2379 10.3879 16.2382 10.3753 16.2412 10.3633C17.0391 7.51292 17.0499 4.4994 16.2725 1.64337C16.2695 1.63133 16.2692 1.61877 16.2717 1.60661C16.2742 1.59445 16.2794 1.58301 16.2869 1.57313C16.2944 1.56325 16.304 1.55519 16.3151 1.54955C16.3261 1.5439 16.3383 1.54082 16.3507 1.54052H17.9929C18.0101 1.54052 18.0269 1.54591 18.0409 1.55593C18.055 1.56595 18.0655 1.58011 18.0711 1.59642C19.0354 4.46125 19.0212 7.56549 18.0309 10.4214V10.4125Z" fill="#5F7A99"/>
</svg>
