<svg width="20" height="20" viewBox="0 0 20 20" fill="none" xmlns="http://www.w3.org/2000/svg">
<path fill-rule="evenodd" clip-rule="evenodd" d="M7.33839 16.4252H5.39256C4.38923 16.4252 3.57506 15.6118 3.57506 14.6077V13.4143C3.57506 12.9327 3.38339 12.4702 3.04256 12.1293L2.19839 11.2852C1.48839 10.5752 1.48839 9.42518 2.19839 8.71518L3.04256 7.87102C3.38339 7.53018 3.57506 7.06852 3.57506 6.58602V5.39268C3.57506 4.38935 4.38839 3.57518 5.39256 3.57518H6.58589C7.06756 3.57518 7.53006 3.38352 7.87089 3.04268L8.71506 2.19852C9.42506 1.48852 10.5751 1.48852 11.2851 2.19852L12.1292 3.04268C12.4701 3.38352 12.9326 3.57518 13.4142 3.57518H14.6076C15.6109 3.57518 16.4251 4.38852 16.4251 5.39268V6.58602C16.4251 7.06768 16.6167 7.53018 16.9576 7.87102L17.8017 8.71518C18.5117 9.42518 18.5117 10.5752 17.8017 11.2852L16.9576 12.1293C16.6167 12.4702 16.4251 12.9327 16.4251 13.4143V14.6077C16.4251 15.611 15.6117 16.4252 14.6076 16.4252H13.4142C12.9326 16.4252 12.4701 16.6168 12.1292 16.9577L11.2851 17.8018C10.5751 18.5118 9.42506 18.5118 8.71506 17.8018L7.33839 16.4252Z" stroke="#5F7A99" stroke-width="1.5" stroke-linecap="round" stroke-linejoin="round"/>
<path d="M7.5 12.5L12.5 7.5" stroke="#5F7A99" stroke-width="1.5" stroke-linecap="round" stroke-linejoin="round"/>
<path d="M7.70752 7.50033C7.59252 7.50033 7.49919 7.59366 7.50002 7.70866C7.50002 7.82366 7.59336 7.91699 7.70836 7.91699C7.82336 7.91699 7.91669 7.82366 7.91669 7.70866C7.91669 7.59366 7.82336 7.50033 7.70752 7.50033" stroke="#5F7A99" stroke-width="1.5" stroke-linecap="round" stroke-linejoin="round"/>
<path d="M12.2908 12.0833C12.1758 12.0833 12.0825 12.1767 12.0833 12.2917C12.0833 12.4067 12.1767 12.5 12.2917 12.5C12.4067 12.5 12.5 12.4067 12.5 12.2917C12.5 12.1767 12.4067 12.0833 12.2908 12.0833" stroke="#5F7A99" stroke-width="1.5" stroke-linecap="round" stroke-linejoin="round"/>
</svg>
