<svg width="18" height="15" viewBox="0 0 18 15" fill="none" xmlns="http://www.w3.org/2000/svg">
<path d="M18 1.77552C17.3375 2.07724 16.6258 2.28028 15.8789 2.37186C16.6417 1.90331 17.2267 1.16144 17.5022 0.276871C16.7892 0.710635 15.9986 1.02584 15.1568 1.19622C14.4832 0.460031 13.5237 0 12.4618 0C10.4223 0 8.76912 1.69601 8.76912 3.78674C8.76912 4.08349 8.80235 4.37314 8.86466 4.6493C5.79578 4.49169 3.07511 2.98381 1.25303 0.692176C0.935964 1.2516 0.753894 1.90189 0.753894 2.5969C0.753894 3.91026 1.40533 5.06957 2.39598 5.74826C1.79093 5.72838 1.22118 5.558 0.723434 5.27474C0.723434 5.29107 0.723434 5.30598 0.723434 5.3223C0.723434 7.15746 1.99585 8.68806 3.6857 9.03521C3.37625 9.12182 3.0495 9.16797 2.71236 9.16797C2.4749 9.16797 2.24299 9.14383 2.018 9.10052C2.48806 10.6049 3.85185 11.7003 5.46764 11.7308C4.20422 12.7467 2.61198 13.3523 0.881274 13.3523C0.583593 13.3523 0.289373 13.3345 0 13.299C1.63448 14.3731 3.57494 15 5.66078 15C12.4534 15 16.1668 9.22973 16.1668 4.22547C16.1668 4.06148 16.1634 3.8982 16.1565 3.73562C16.8785 3.20105 17.505 2.53443 18 1.77552Z" fill="#5F7A99"/>
</svg>
