<svg width="13" height="17" viewBox="0 0 13 17" fill="none" xmlns="http://www.w3.org/2000/svg">
<path d="M11.6316 0.5H1.36842C0.612368 0.5 0 1.09667 0 1.83333V15.1667C0 15.9033 0.612368 16.5 1.36842 16.5H11.6316C12.3876 16.5 13 15.9033 13 15.1667V1.83333C13 1.09667 12.3876 0.5 11.6316 0.5ZM3.07895 9.16667C3.64547 9.16667 4.10526 9.61467 4.10526 10.1667C4.10526 10.7187 3.64547 11.1667 3.07895 11.1667C2.51242 11.1667 2.05263 10.7187 2.05263 10.1667C2.05263 9.61467 2.51242 9.16667 3.07895 9.16667ZM2.05263 6.83333C2.05263 6.28133 2.51242 5.83333 3.07895 5.83333C3.64547 5.83333 4.10526 6.28133 4.10526 6.83333C4.10526 7.38533 3.64547 7.83333 3.07895 7.83333C2.51242 7.83333 2.05263 7.38533 2.05263 6.83333ZM6.5 14.5H3.07895C2.51242 14.5 2.05263 14.052 2.05263 13.5C2.05263 12.948 2.51242 12.5 3.07895 12.5H6.5C7.06653 12.5 7.52632 12.948 7.52632 13.5C7.52632 14.052 7.06653 14.5 6.5 14.5ZM6.5 11.1667C5.93347 11.1667 5.47368 10.7187 5.47368 10.1667C5.47368 9.61467 5.93347 9.16667 6.5 9.16667C7.06653 9.16667 7.52632 9.61467 7.52632 10.1667C7.52632 10.7187 7.06653 11.1667 6.5 11.1667ZM6.5 7.83333C5.93347 7.83333 5.47368 7.38533 5.47368 6.83333C5.47368 6.28133 5.93347 5.83333 6.5 5.83333C7.06653 5.83333 7.52632 6.28133 7.52632 6.83333C7.52632 7.38533 7.06653 7.83333 6.5 7.83333ZM9.92105 14.5C9.35453 14.5 8.89474 14.052 8.89474 13.5C8.89474 12.948 9.35453 12.5 9.92105 12.5C10.4876 12.5 10.9474 12.948 10.9474 13.5C10.9474 14.052 10.4876 14.5 9.92105 14.5ZM9.92105 11.1667C9.35453 11.1667 8.89474 10.7187 8.89474 10.1667C8.89474 9.61467 9.35453 9.16667 9.92105 9.16667C10.4876 9.16667 10.9474 9.61467 10.9474 10.1667C10.9474 10.7187 10.4876 11.1667 9.92105 11.1667ZM9.92105 7.83333C9.35453 7.83333 8.89474 7.38533 8.89474 6.83333C8.89474 6.28133 9.35453 5.83333 9.92105 5.83333C10.4876 5.83333 10.9474 6.28133 10.9474 6.83333C10.9474 7.38533 10.4876 7.83333 9.92105 7.83333ZM10.9474 4.5H2.05263V2.5H10.9474V4.5Z" fill="#748CA9"/>
</svg>
