<svg width="126" height="108" viewBox="0 0 126 108" fill="none" xmlns="http://www.w3.org/2000/svg">
<path d="M13.5 0C6.08203 0 0 6.08203 0 13.5V85.5C0 92.918 6.08203 99 13.5 99H14C16.2091 99 18 100.791 18 103V104C18 106.209 19.7909 108 22 108H32C34.2091 108 36 106.209 36 104V103C36 100.791 37.7909 99 40 99H77C79.2091 99 81 100.791 81 103V104C81 106.209 82.7909 108 85 108H95C97.2091 108 99 106.209 99 104V103C99 100.791 100.791 99 103 99H103.5C110.918 99 117 92.918 117 85.5V85C117 82.7909 118.791 81 121 81H122C124.209 81 126 79.2091 126 77V67C126 64.7909 124.209 63 122 63H121C118.791 63 117 61.2091 117 59V40C117 37.7909 118.791 36 121 36H122C124.209 36 126 34.2091 126 32V22C126 19.7909 124.209 18 122 18H121C118.791 18 117 16.2091 117 14V13.5C117 6.08203 110.918 0 103.5 0H13.5ZM13.5 9H103.5C106.031 9 108 10.9688 108 13.5V85.5C108 88.0312 106.031 90 103.5 90H13.5C10.9688 90 9 88.0312 9 85.5V13.5C9 10.9688 10.9688 9 13.5 9ZM22 27C19.7909 27 18 28.7909 18 31V68C18 70.2091 19.7909 72 22 72H23C25.2091 72 27 70.2091 27 68V31C27 28.7909 25.2091 27 23 27H22ZM67.5 27C55.125 27 45 37.125 45 49.5C45 61.875 55.125 72 67.5 72C79.875 72 90 61.875 90 49.5C90 37.125 79.875 27 67.5 27ZM67.5 36C75.0234 36 81 41.9766 81 49.5C81 57.0234 75.0234 63 67.5 63C59.9766 63 54 57.0234 54 49.5C54 41.9766 59.9766 36 67.5 36Z" fill="url(#paint0_linear_5364_6037)"/>
<defs>
<linearGradient id="paint0_linear_5364_6037" x1="2.97946e-07" y1="55.7419" x2="126" y2="55.7419" gradientUnits="userSpaceOnUse">
<stop stop-color="#72639B"/>
<stop offset="1" stop-color="#44B9DE"/>
</linearGradient>
</defs>
</svg>
